STARTFONT 2.1
FONT -Untitled-Regular-R-Regular--8-8-75-75-c-80-iso10646-1
SIZE 8 75 75
FONTBOUNDINGBOX 10 8 0 -1
STARTPROPERTIES 9
FAMILY_NAME "Untitled"
WEIGHT_NAME "Regular"
FONT_VERSION "Version 1.0"
FOUNDRY "Made with Bits'n'Picas by Kreative Software"
FONT_ASCENT 7
FONT_DESCENT 1
POINT_SIZE 8
X_HEIGHT 5
CAP_HEIGHT 6
ENDPROPERTIES
CHARS 757
STARTCHAR U+0000
ENCODING 0
SWIDTH 0 0
DWIDTH 0 0
BBX 0 0 0 0
BITMAP
ENDCHAR
STARTCHAR U+0001
ENCODING 1
SWIDTH 600 0
DWIDTH 6 0
BBX 5 7 0 0
BITMAP
70
88
D8
88
F8
A8
70
ENDCHAR
STARTCHAR U+0002
ENCODING 2
SWIDTH 600 0
DWIDTH 6 0
BBX 5 7 0 0
BITMAP
70
F8
A8
F8
88
D8
70
ENDCHAR
STARTCHAR U+0003
ENCODING 3
SWIDTH 600 0
DWIDTH 6 0
BBX 5 6 0 0
BITMAP
50
F8
F8
F8
70
20
ENDCHAR
STARTCHAR U+0004
ENCODING 4
SWIDTH 600 0
DWIDTH 6 0
BBX 5 5 0 1
BITMAP
20
70
F8
70
20
ENDCHAR
STARTCHAR U+0005
ENCODING 5
SWIDTH 500 0
DWIDTH 5 0
BBX 4 7 0 0
BITMAP
20
60
60
D0
90
60
F0
ENDCHAR
STARTCHAR U+0006
ENCODING 6
SWIDTH 500 0
DWIDTH 5 0
BBX 4 7 0 0
BITMAP
20
60
60
F0
F0
60
F0
ENDCHAR
STARTCHAR U+0007
ENCODING 7
SWIDTH 500 0
DWIDTH 5 0
BBX 2 2 1 2
BITMAP
C0
C0
ENDCHAR
STARTCHAR U+0008
ENCODING 8
SWIDTH 500 0
DWIDTH 5 0
BBX 5 8 0 -1
BITMAP
F8
F8
F8
98
98
F8
F8
F8
ENDCHAR
STARTCHAR U+0009
ENCODING 9
SWIDTH 500 0
DWIDTH 5 0
BBX 4 4 0 1
BITMAP
60
90
90
60
ENDCHAR
STARTCHAR U+000A
ENCODING 10
SWIDTH 500 0
DWIDTH 5 0
BBX 5 8 0 -1
BITMAP
F8
F8
98
68
68
98
F8
F8
ENDCHAR
STARTCHAR U+000B
ENCODING 11
SWIDTH 500 0
DWIDTH 5 0
BBX 5 7 0 0
BITMAP
38
18
28
60
90
90
60
ENDCHAR
STARTCHAR U+000C
ENCODING 12
SWIDTH 500 0
DWIDTH 5 0
BBX 4 7 0 0
BITMAP
60
90
90
60
20
70
20
ENDCHAR
STARTCHAR U+000D
ENCODING 13
SWIDTH 500 0
DWIDTH 5 0
BBX 4 6 0 0
BITMAP
30
20
20
60
E0
C0
ENDCHAR
STARTCHAR U+000E
ENCODING 14
SWIDTH 600 0
DWIDTH 6 0
BBX 5 6 0 0
BITMAP
78
48
48
C8
D8
98
ENDCHAR
STARTCHAR U+000F
ENCODING 15
SWIDTH 600 0
DWIDTH 6 0
BBX 5 7 0 -1
BITMAP
20
A8
F8
50
F8
A8
20
ENDCHAR
STARTCHAR U+0010
ENCODING 16
SWIDTH 400 0
DWIDTH 4 0
BBX 3 6 0 0
BITMAP
80
C0
E0
E0
C0
80
ENDCHAR
STARTCHAR U+0011
ENCODING 17
SWIDTH 400 0
DWIDTH 4 0
BBX 3 6 0 0
BITMAP
20
60
E0
E0
60
20
ENDCHAR
STARTCHAR U+0012
ENCODING 18
SWIDTH 600 0
DWIDTH 6 0
BBX 5 7 0 0
BITMAP
20
70
F8
20
F8
70
20
ENDCHAR
STARTCHAR U+0013
ENCODING 19
SWIDTH 400 0
DWIDTH 4 0
BBX 3 6 0 0
BITMAP
A0
A0
A0
A0
00
A0
ENDCHAR
STARTCHAR U+0014
ENCODING 20
SWIDTH 600 0
DWIDTH 6 0
BBX 5 6 0 0
BITMAP
78
E8
E8
68
28
28
ENDCHAR
STARTCHAR U+0015
ENCODING 21
SWIDTH 400 0
DWIDTH 4 0
BBX 3 7 0 0
BITMAP
60
80
E0
A0
E0
20
C0
ENDCHAR
STARTCHAR U+0016
ENCODING 22
SWIDTH 500 0
DWIDTH 5 0
BBX 4 2 0 0
BITMAP
F0
F0
ENDCHAR
STARTCHAR U+0017
ENCODING 23
SWIDTH 600 0
DWIDTH 6 0
BBX 5 8 0 -1
BITMAP
20
70
F8
20
F8
70
20
F8
ENDCHAR
STARTCHAR U+0018
ENCODING 24
SWIDTH 600 0
DWIDTH 6 0
BBX 5 6 0 0
BITMAP
20
70
A8
20
20
20
ENDCHAR
STARTCHAR U+0019
ENCODING 25
SWIDTH 600 0
DWIDTH 6 0
BBX 5 6 0 0
BITMAP
20
20
20
A8
70
20
ENDCHAR
STARTCHAR U+001A
ENCODING 26
SWIDTH 600 0
DWIDTH 6 0
BBX 5 5 0 0
BITMAP
20
10
F8
10
20
ENDCHAR
STARTCHAR U+001B
ENCODING 27
SWIDTH 600 0
DWIDTH 6 0
BBX 5 5 0 0
BITMAP
20
40
F8
40
20
ENDCHAR
STARTCHAR U+001C
ENCODING 28
SWIDTH 500 0
DWIDTH 5 0
BBX 4 2 0 2
BITMAP
80
F0
ENDCHAR
STARTCHAR U+001D
ENCODING 29
SWIDTH 800 0
DWIDTH 8 0
BBX 7 6 0 0
BITMAP
28
6C
FE
FE
6C
28
ENDCHAR
STARTCHAR U+001E
ENCODING 30
SWIDTH 600 0
DWIDTH 6 0
BBX 5 6 0 0
BITMAP
20
20
70
70
F8
F8
ENDCHAR
STARTCHAR U+001F
ENCODING 31
SWIDTH 600 0
DWIDTH 6 0
BBX 5 6 0 0
BITMAP
F8
F8
70
70
20
20
ENDCHAR
STARTCHAR U+0020
ENCODING 32
SWIDTH 200 0
DWIDTH 2 0
BBX 0 0 0 0
BITMAP
ENDCHAR
STARTCHAR U+0021
ENCODING 33
SWIDTH 200 0
DWIDTH 2 0
BBX 1 6 0 0
BITMAP
80
80
80
80
00
80
ENDCHAR
STARTCHAR U+0022
ENCODING 34
SWIDTH 400 0
DWIDTH 4 0
BBX 3 2 0 4
BITMAP
A0
A0
ENDCHAR
STARTCHAR U+0023
ENCODING 35
SWIDTH 600 0
DWIDTH 6 0
BBX 5 6 0 0
BITMAP
50
F8
50
50
F8
50
ENDCHAR
STARTCHAR U+0024
ENCODING 36
SWIDTH 600 0
DWIDTH 6 0
BBX 5 7 0 -1
BITMAP
20
78
A0
70
28
F0
20
ENDCHAR
STARTCHAR U+0025
ENCODING 37
SWIDTH 500 0
DWIDTH 5 0
BBX 4 5 0 0
BITMAP
90
20
60
40
90
ENDCHAR
STARTCHAR U+0026
ENCODING 38
SWIDTH 500 0
DWIDTH 5 0
BBX 4 6 0 0
BITMAP
40
A0
A0
50
A0
50
ENDCHAR
STARTCHAR U+0027
ENCODING 39
SWIDTH 200 0
DWIDTH 2 0
BBX 1 2 0 4
BITMAP
80
80
ENDCHAR
STARTCHAR U+0028
ENCODING 40
SWIDTH 300 0
DWIDTH 3 0
BBX 2 6 0 0
BITMAP
40
80
80
80
80
40
ENDCHAR
STARTCHAR U+0029
ENCODING 41
SWIDTH 300 0
DWIDTH 3 0
BBX 2 6 0 0
BITMAP
80
40
40
40
40
80
ENDCHAR
STARTCHAR U+002A
ENCODING 42
SWIDTH 600 0
DWIDTH 6 0
BBX 5 5 0 0
BITMAP
20
A8
70
A8
20
ENDCHAR
STARTCHAR U+002B
ENCODING 43
SWIDTH 600 0
DWIDTH 6 0
BBX 5 5 0 0
BITMAP
20
20
F8
20
20
ENDCHAR
STARTCHAR U+002C
ENCODING 44
SWIDTH 300 0
DWIDTH 3 0
BBX 2 2 0 -1
BITMAP
40
80
ENDCHAR
STARTCHAR U+002D
ENCODING 45
SWIDTH 500 0
DWIDTH 5 0
BBX 4 1 0 2
BITMAP
F0
ENDCHAR
STARTCHAR U+002E
ENCODING 46
SWIDTH 200 0
DWIDTH 2 0
BBX 1 1 0 0
BITMAP
80
ENDCHAR
STARTCHAR U+002F
ENCODING 47
SWIDTH 400 0
DWIDTH 4 0
BBX 3 6 0 0
BITMAP
20
20
40
40
80
80
ENDCHAR
STARTCHAR U+0030
ENCODING 48
SWIDTH 500 0
DWIDTH 5 0
BBX 4 6 0 0
BITMAP
60
90
B0
D0
90
60
ENDCHAR
STARTCHAR U+0031
ENCODING 49
SWIDTH 500 0
DWIDTH 5 0
BBX 3 6 1 0
BITMAP
40
C0
40
40
40
E0
ENDCHAR
STARTCHAR U+0032
ENCODING 50
SWIDTH 500 0
DWIDTH 5 0
BBX 4 6 0 0
BITMAP
60
90
10
20
40
F0
ENDCHAR
STARTCHAR U+0033
ENCODING 51
SWIDTH 500 0
DWIDTH 5 0
BBX 4 6 0 0
BITMAP
60
90
20
10
90
60
ENDCHAR
STARTCHAR U+0034
ENCODING 52
SWIDTH 500 0
DWIDTH 5 0
BBX 4 6 0 0
BITMAP
30
50
50
90
F0
10
ENDCHAR
STARTCHAR U+0035
ENCODING 53
SWIDTH 500 0
DWIDTH 5 0
BBX 4 6 0 0
BITMAP
F0
80
E0
10
10
E0
ENDCHAR
STARTCHAR U+0036
ENCODING 54
SWIDTH 500 0
DWIDTH 5 0
BBX 4 6 0 0
BITMAP
60
80
E0
90
90
60
ENDCHAR
STARTCHAR U+0037
ENCODING 55
SWIDTH 500 0
DWIDTH 5 0
BBX 4 6 0 0
BITMAP
F0
10
10
20
20
20
ENDCHAR
STARTCHAR U+0038
ENCODING 56
SWIDTH 500 0
DWIDTH 5 0
BBX 4 6 0 0
BITMAP
60
90
60
90
90
60
ENDCHAR
STARTCHAR U+0039
ENCODING 57
SWIDTH 500 0
DWIDTH 5 0
BBX 4 6 0 0
BITMAP
60
90
90
70
10
60
ENDCHAR
STARTCHAR U+003A
ENCODING 58
SWIDTH 200 0
DWIDTH 2 0
BBX 1 4 0 0
BITMAP
80
00
00
80
ENDCHAR
STARTCHAR U+003B
ENCODING 59
SWIDTH 300 0
DWIDTH 3 0
BBX 2 5 0 -1
BITMAP
40
00
00
40
80
ENDCHAR
STARTCHAR U+003C
ENCODING 60
SWIDTH 400 0
DWIDTH 4 0
BBX 3 5 0 0
BITMAP
20
40
80
40
20
ENDCHAR
STARTCHAR U+003D
ENCODING 61
SWIDTH 400 0
DWIDTH 4 0
BBX 3 3 0 1
BITMAP
E0
00
E0
ENDCHAR
STARTCHAR U+003E
ENCODING 62
SWIDTH 400 0
DWIDTH 4 0
BBX 3 5 0 0
BITMAP
80
40
20
40
80
ENDCHAR
STARTCHAR U+003F
ENCODING 63
SWIDTH 500 0
DWIDTH 5 0
BBX 4 6 0 0
BITMAP
60
90
20
40
00
40
ENDCHAR
STARTCHAR U+0040
ENCODING 64
SWIDTH 600 0
DWIDTH 6 0
BBX 5 7 0 -1
BITMAP
70
88
98
A8
B8
80
78
ENDCHAR
STARTCHAR U+0041
ENCODING 65
SWIDTH 500 0
DWIDTH 5 0
BBX 4 6 0 0
BITMAP
60
90
90
F0
90
90
ENDCHAR
STARTCHAR U+0042
ENCODING 66
SWIDTH 500 0
DWIDTH 5 0
BBX 4 6 0 0
BITMAP
E0
90
E0
90
90
E0
ENDCHAR
STARTCHAR U+0043
ENCODING 67
SWIDTH 500 0
DWIDTH 5 0
BBX 4 6 0 0
BITMAP
60
90
80
80
90
60
ENDCHAR
STARTCHAR U+0044
ENCODING 68
SWIDTH 500 0
DWIDTH 5 0
BBX 4 6 0 0
BITMAP
E0
90
90
90
90
E0
ENDCHAR
STARTCHAR U+0045
ENCODING 69
SWIDTH 500 0
DWIDTH 5 0
BBX 4 6 0 0
BITMAP
F0
80
E0
80
80
F0
ENDCHAR
STARTCHAR U+0046
ENCODING 70
SWIDTH 500 0
DWIDTH 5 0
BBX 4 6 0 0
BITMAP
F0
80
E0
80
80
80
ENDCHAR
STARTCHAR U+0047
ENCODING 71
SWIDTH 500 0
DWIDTH 5 0
BBX 4 6 0 0
BITMAP
60
90
80
B0
90
70
ENDCHAR
STARTCHAR U+0048
ENCODING 72
SWIDTH 500 0
DWIDTH 5 0
BBX 4 6 0 0
BITMAP
90
90
F0
90
90
90
ENDCHAR
STARTCHAR U+0049
ENCODING 73
SWIDTH 400 0
DWIDTH 4 0
BBX 3 6 0 0
BITMAP
E0
40
40
40
40
E0
ENDCHAR
STARTCHAR U+004A
ENCODING 74
SWIDTH 500 0
DWIDTH 5 0
BBX 4 6 0 0
BITMAP
10
10
10
10
90
60
ENDCHAR
STARTCHAR U+004B
ENCODING 75
SWIDTH 500 0
DWIDTH 5 0
BBX 4 6 0 0
BITMAP
90
A0
C0
A0
90
90
ENDCHAR
STARTCHAR U+004C
ENCODING 76
SWIDTH 500 0
DWIDTH 5 0
BBX 4 6 0 0
BITMAP
80
80
80
80
80
F0
ENDCHAR
STARTCHAR U+004D
ENCODING 77
SWIDTH 600 0
DWIDTH 6 0
BBX 5 6 0 0
BITMAP
88
D8
A8
A8
88
88
ENDCHAR
STARTCHAR U+004E
ENCODING 78
SWIDTH 500 0
DWIDTH 5 0
BBX 4 6 0 0
BITMAP
90
D0
B0
90
90
90
ENDCHAR
STARTCHAR U+004F
ENCODING 79
SWIDTH 500 0
DWIDTH 5 0
BBX 4 6 0 0
BITMAP
60
90
90
90
90
60
ENDCHAR
STARTCHAR U+0050
ENCODING 80
SWIDTH 500 0
DWIDTH 5 0
BBX 4 6 0 0
BITMAP
E0
90
90
E0
80
80
ENDCHAR
STARTCHAR U+0051
ENCODING 81
SWIDTH 500 0
DWIDTH 5 0
BBX 4 6 0 0
BITMAP
60
90
90
90
A0
50
ENDCHAR
STARTCHAR U+0052
ENCODING 82
SWIDTH 500 0
DWIDTH 5 0
BBX 4 6 0 0
BITMAP
E0
90
90
E0
A0
90
ENDCHAR
STARTCHAR U+0053
ENCODING 83
SWIDTH 500 0
DWIDTH 5 0
BBX 4 6 0 0
BITMAP
60
90
40
20
90
60
ENDCHAR
STARTCHAR U+0054
ENCODING 84
SWIDTH 600 0
DWIDTH 6 0
BBX 5 6 0 0
BITMAP
F8
20
20
20
20
20
ENDCHAR
STARTCHAR U+0055
ENCODING 85
SWIDTH 500 0
DWIDTH 5 0
BBX 4 6 0 0
BITMAP
90
90
90
90
90
60
ENDCHAR
STARTCHAR U+0056
ENCODING 86
SWIDTH 600 0
DWIDTH 6 0
BBX 5 6 0 0
BITMAP
88
88
50
50
20
20
ENDCHAR
STARTCHAR U+0057
ENCODING 87
SWIDTH 600 0
DWIDTH 6 0
BBX 5 6 0 0
BITMAP
88
A8
A8
A8
50
50
ENDCHAR
STARTCHAR U+0058
ENCODING 88
SWIDTH 600 0
DWIDTH 6 0
BBX 5 6 0 0
BITMAP
88
50
20
20
50
88
ENDCHAR
STARTCHAR U+0059
ENCODING 89
SWIDTH 600 0
DWIDTH 6 0
BBX 5 6 0 0
BITMAP
88
88
50
20
20
20
ENDCHAR
STARTCHAR U+005A
ENCODING 90
SWIDTH 500 0
DWIDTH 5 0
BBX 4 6 0 0
BITMAP
F0
10
20
40
80
F0
ENDCHAR
STARTCHAR U+005B
ENCODING 91
SWIDTH 400 0
DWIDTH 4 0
BBX 3 6 0 0
BITMAP
E0
80
80
80
80
E0
ENDCHAR
STARTCHAR U+005C
ENCODING 92
SWIDTH 400 0
DWIDTH 4 0
BBX 3 6 0 0
BITMAP
80
80
40
40
20
20
ENDCHAR
STARTCHAR U+005D
ENCODING 93
SWIDTH 400 0
DWIDTH 4 0
BBX 3 6 0 0
BITMAP
E0
20
20
20
20
E0
ENDCHAR
STARTCHAR U+005E
ENCODING 94
SWIDTH 400 0
DWIDTH 4 0
BBX 3 2 0 4
BITMAP
40
A0
ENDCHAR
STARTCHAR U+005F
ENCODING 95
SWIDTH 400 0
DWIDTH 4 0
BBX 3 1 0 0
BITMAP
E0
ENDCHAR
STARTCHAR U+0060
ENCODING 96
SWIDTH 300 0
DWIDTH 3 0
BBX 2 2 0 4
BITMAP
80
40
ENDCHAR
STARTCHAR U+0061
ENCODING 97
SWIDTH 500 0
DWIDTH 5 0
BBX 4 5 0 0
BITMAP
60
10
70
90
70
ENDCHAR
STARTCHAR U+0062
ENCODING 98
SWIDTH 500 0
DWIDTH 5 0
BBX 4 6 0 0
BITMAP
80
80
E0
90
90
E0
ENDCHAR
STARTCHAR U+0063
ENCODING 99
SWIDTH 500 0
DWIDTH 5 0
BBX 4 5 0 0
BITMAP
60
90
80
90
60
ENDCHAR
STARTCHAR U+0064
ENCODING 100
SWIDTH 500 0
DWIDTH 5 0
BBX 4 6 0 0
BITMAP
10
10
70
90
90
70
ENDCHAR
STARTCHAR U+0065
ENCODING 101
SWIDTH 500 0
DWIDTH 5 0
BBX 4 5 0 0
BITMAP
60
90
F0
80
60
ENDCHAR
STARTCHAR U+0066
ENCODING 102
SWIDTH 500 0
DWIDTH 5 0
BBX 4 6 0 0
BITMAP
30
40
E0
40
40
40
ENDCHAR
STARTCHAR U+0067
ENCODING 103
SWIDTH 500 0
DWIDTH 5 0
BBX 4 6 0 -1
BITMAP
70
90
90
70
10
60
ENDCHAR
STARTCHAR U+0068
ENCODING 104
SWIDTH 500 0
DWIDTH 5 0
BBX 4 6 0 0
BITMAP
80
80
E0
90
90
90
ENDCHAR
STARTCHAR U+0069
ENCODING 105
SWIDTH 400 0
DWIDTH 4 0
BBX 3 7 0 0
BITMAP
40
00
C0
40
40
40
E0
ENDCHAR
STARTCHAR U+006A
ENCODING 106
SWIDTH 400 0
DWIDTH 4 0
BBX 3 8 0 -1
BITMAP
40
00
E0
20
20
20
20
C0
ENDCHAR
STARTCHAR U+006B
ENCODING 107
SWIDTH 500 0
DWIDTH 5 0
BBX 4 6 0 0
BITMAP
80
90
A0
C0
A0
90
ENDCHAR
STARTCHAR U+006C
ENCODING 108
SWIDTH 400 0
DWIDTH 4 0
BBX 3 6 0 0
BITMAP
C0
40
40
40
40
60
ENDCHAR
STARTCHAR U+006D
ENCODING 109
SWIDTH 600 0
DWIDTH 6 0
BBX 5 5 0 0
BITMAP
D0
A8
A8
A8
A8
ENDCHAR
STARTCHAR U+006E
ENCODING 110
SWIDTH 500 0
DWIDTH 5 0
BBX 4 5 0 0
BITMAP
E0
90
90
90
90
ENDCHAR
STARTCHAR U+006F
ENCODING 111
SWIDTH 500 0
DWIDTH 5 0
BBX 4 5 0 0
BITMAP
60
90
90
90
60
ENDCHAR
STARTCHAR U+0070
ENCODING 112
SWIDTH 500 0
DWIDTH 5 0
BBX 4 6 0 -1
BITMAP
E0
90
90
E0
80
80
ENDCHAR
STARTCHAR U+0071
ENCODING 113
SWIDTH 500 0
DWIDTH 5 0
BBX 4 6 0 -1
BITMAP
70
90
90
70
10
10
ENDCHAR
STARTCHAR U+0072
ENCODING 114
SWIDTH 500 0
DWIDTH 5 0
BBX 4 5 0 0
BITMAP
B0
C0
80
80
80
ENDCHAR
STARTCHAR U+0073
ENCODING 115
SWIDTH 500 0
DWIDTH 5 0
BBX 4 5 0 0
BITMAP
70
80
60
10
E0
ENDCHAR
STARTCHAR U+0074
ENCODING 116
SWIDTH 400 0
DWIDTH 4 0
BBX 3 6 0 0
BITMAP
40
E0
40
40
40
20
ENDCHAR
STARTCHAR U+0075
ENCODING 117
SWIDTH 500 0
DWIDTH 5 0
BBX 4 5 0 0
BITMAP
90
90
90
90
70
ENDCHAR
STARTCHAR U+0076
ENCODING 118
SWIDTH 600 0
DWIDTH 6 0
BBX 5 5 0 0
BITMAP
88
88
50
50
20
ENDCHAR
STARTCHAR U+0077
ENCODING 119
SWIDTH 600 0
DWIDTH 6 0
BBX 5 5 0 0
BITMAP
A8
A8
A8
50
50
ENDCHAR
STARTCHAR U+0078
ENCODING 120
SWIDTH 600 0
DWIDTH 6 0
BBX 5 5 0 0
BITMAP
88
50
20
50
88
ENDCHAR
STARTCHAR U+0079
ENCODING 121
SWIDTH 500 0
DWIDTH 5 0
BBX 4 6 0 -1
BITMAP
90
90
90
70
10
E0
ENDCHAR
STARTCHAR U+007A
ENCODING 122
SWIDTH 500 0
DWIDTH 5 0
BBX 4 5 0 0
BITMAP
F0
20
40
80
F0
ENDCHAR
STARTCHAR U+007B
ENCODING 123
SWIDTH 400 0
DWIDTH 4 0
BBX 3 6 0 0
BITMAP
20
40
40
C0
40
20
ENDCHAR
STARTCHAR U+007C
ENCODING 124
SWIDTH 200 0
DWIDTH 2 0
BBX 1 6 0 0
BITMAP
80
80
80
80
80
80
ENDCHAR
STARTCHAR U+007D
ENCODING 125
SWIDTH 400 0
DWIDTH 4 0
BBX 3 6 0 0
BITMAP
80
40
40
60
40
80
ENDCHAR
STARTCHAR U+007E
ENCODING 126
SWIDTH 600 0
DWIDTH 6 0
BBX 5 3 0 1
BITMAP
40
A8
10
ENDCHAR
STARTCHAR U+007F
ENCODING 127
SWIDTH 500 0
DWIDTH 5 0
BBX 4 4 0 1
BITMAP
60
90
90
F0
ENDCHAR
STARTCHAR U+00A1
ENCODING 161
SWIDTH 200 0
DWIDTH 2 0
BBX 1 6 0 0
BITMAP
80
00
80
80
80
80
ENDCHAR
STARTCHAR U+00A2
ENCODING 162
SWIDTH 500 0
DWIDTH 5 0
BBX 4 6 0 0
BITMAP
20
70
80
80
70
20
ENDCHAR
STARTCHAR U+00A3
ENCODING 163
SWIDTH 500 0
DWIDTH 5 0
BBX 4 6 0 0
BITMAP
30
40
E0
40
80
F0
ENDCHAR
STARTCHAR U+00A4
ENCODING 164
SWIDTH 600 0
DWIDTH 6 0
BBX 5 5 0 0
BITMAP
88
70
50
70
88
ENDCHAR
STARTCHAR U+00A5
ENCODING 165
SWIDTH 600 0
DWIDTH 6 0
BBX 5 6 0 0
BITMAP
88
50
F8
20
F8
20
ENDCHAR
STARTCHAR U+00A6
ENCODING 166
SWIDTH 200 0
DWIDTH 2 0
BBX 1 6 0 0
BITMAP
80
80
00
00
80
80
ENDCHAR
STARTCHAR U+00A7
ENCODING 167
SWIDTH 400 0
DWIDTH 4 0
BBX 3 7 0 0
BITMAP
60
80
E0
A0
E0
20
C0
ENDCHAR
STARTCHAR U+00A8
ENCODING 168
SWIDTH 400 0
DWIDTH 4 0
BBX 3 1 0 6
BITMAP
A0
ENDCHAR
STARTCHAR U+00A9
ENCODING 169
SWIDTH 700 0
DWIDTH 7 0
BBX 6 7 0 0
BITMAP
78
84
B4
A4
B4
84
78
ENDCHAR
STARTCHAR U+00AA
ENCODING 170
SWIDTH 400 0
DWIDTH 4 0
BBX 3 4 0 2
BITMAP
C0
60
A0
60
ENDCHAR
STARTCHAR U+00AB
ENCODING 171
SWIDTH 600 0
DWIDTH 6 0
BBX 5 5 0 0
BITMAP
28
50
A0
50
28
ENDCHAR
STARTCHAR U+00AC
ENCODING 172
SWIDTH 400 0
DWIDTH 4 0
BBX 3 2 0 2
BITMAP
E0
20
ENDCHAR
STARTCHAR U+00AE
ENCODING 174
SWIDTH 700 0
DWIDTH 7 0
BBX 6 7 0 0
BITMAP
78
84
B4
A4
94
84
78
ENDCHAR
STARTCHAR U+00AF
ENCODING 175
SWIDTH 500 0
DWIDTH 5 0
BBX 4 1 0 5
BITMAP
F0
ENDCHAR
STARTCHAR U+00B0
ENCODING 176
SWIDTH 400 0
DWIDTH 4 0
BBX 3 3 0 3
BITMAP
40
A0
40
ENDCHAR
STARTCHAR U+00B1
ENCODING 177
SWIDTH 400 0
DWIDTH 4 0
BBX 3 5 0 0
BITMAP
40
E0
40
00
E0
ENDCHAR
STARTCHAR U+00B2
ENCODING 178
SWIDTH 400 0
DWIDTH 4 0
BBX 3 4 0 2
BITMAP
C0
20
40
E0
ENDCHAR
STARTCHAR U+00B3
ENCODING 179
SWIDTH 400 0
DWIDTH 4 0
BBX 3 4 0 2
BITMAP
C0
20
60
C0
ENDCHAR
STARTCHAR U+00B4
ENCODING 180
SWIDTH 300 0
DWIDTH 3 0
BBX 2 2 0 4
BITMAP
40
80
ENDCHAR
STARTCHAR U+00B5
ENCODING 181
SWIDTH 500 0
DWIDTH 5 0
BBX 4 6 0 -1
BITMAP
90
90
90
90
E0
80
ENDCHAR
STARTCHAR U+00B6
ENCODING 182
SWIDTH 600 0
DWIDTH 6 0
BBX 5 6 0 0
BITMAP
78
E8
E8
68
28
28
ENDCHAR
STARTCHAR U+00B7
ENCODING 183
SWIDTH 200 0
DWIDTH 2 0
BBX 1 1 0 2
BITMAP
80
ENDCHAR
STARTCHAR U+00B8
ENCODING 184
SWIDTH 300 0
DWIDTH 3 0
BBX 2 3 0 -1
BITMAP
80
40
80
ENDCHAR
STARTCHAR U+00B9
ENCODING 185
SWIDTH 400 0
DWIDTH 4 0
BBX 3 4 0 2
BITMAP
40
C0
40
E0
ENDCHAR
STARTCHAR U+00BA
ENCODING 186
SWIDTH 400 0
DWIDTH 4 0
BBX 3 4 0 2
BITMAP
40
A0
A0
40
ENDCHAR
STARTCHAR U+00BB
ENCODING 187
SWIDTH 600 0
DWIDTH 6 0
BBX 5 5 0 0
BITMAP
A0
50
28
50
A0
ENDCHAR
STARTCHAR U+00BC
ENCODING 188
SWIDTH 700 0
DWIDTH 7 0
BBX 6 7 0 0
BITMAP
50
D0
40
48
10
5C
48
ENDCHAR
STARTCHAR U+00BD
ENCODING 189
SWIDTH 700 0
DWIDTH 7 0
BBX 6 7 0 0
BITMAP
50
D0
40
58
04
48
5C
ENDCHAR
STARTCHAR U+00BE
ENCODING 190
SWIDTH 700 0
DWIDTH 7 0
BBX 6 7 0 0
BITMAP
D0
50
80
48
D0
1C
48
ENDCHAR
STARTCHAR U+00BF
ENCODING 191
SWIDTH 500 0
DWIDTH 5 0
BBX 4 6 0 0
BITMAP
20
00
20
40
90
60
ENDCHAR
STARTCHAR U+00C0
ENCODING 192
SWIDTH 500 0
DWIDTH 5 0
BBX 4 7 0 0
BITMAP
40
20
60
90
F0
90
90
ENDCHAR
STARTCHAR U+00C1
ENCODING 193
SWIDTH 500 0
DWIDTH 5 0
BBX 4 7 0 0
BITMAP
20
40
60
90
F0
90
90
ENDCHAR
STARTCHAR U+00C2
ENCODING 194
SWIDTH 500 0
DWIDTH 5 0
BBX 4 7 0 0
BITMAP
60
90
60
90
F0
90
90
ENDCHAR
STARTCHAR U+00C3
ENCODING 195
SWIDTH 500 0
DWIDTH 5 0
BBX 4 7 0 0
BITMAP
50
A0
60
90
F0
90
90
ENDCHAR
STARTCHAR U+00C4
ENCODING 196
SWIDTH 500 0
DWIDTH 5 0
BBX 4 7 0 0
BITMAP
A0
00
60
90
F0
90
90
ENDCHAR
STARTCHAR U+00C5
ENCODING 197
SWIDTH 500 0
DWIDTH 5 0
BBX 4 7 0 0
BITMAP
60
00
60
90
F0
90
90
ENDCHAR
STARTCHAR U+00C6
ENCODING 198
SWIDTH 600 0
DWIDTH 6 0
BBX 5 6 0 0
BITMAP
78
A0
F0
A0
A0
B8
ENDCHAR
STARTCHAR U+00C7
ENCODING 199
SWIDTH 500 0
DWIDTH 5 0
BBX 4 7 0 -1
BITMAP
60
90
80
80
90
60
C0
ENDCHAR
STARTCHAR U+00C8
ENCODING 200
SWIDTH 500 0
DWIDTH 5 0
BBX 4 7 0 0
BITMAP
40
20
F0
80
E0
80
F0
ENDCHAR
STARTCHAR U+00C9
ENCODING 201
SWIDTH 500 0
DWIDTH 5 0
BBX 4 7 0 0
BITMAP
20
40
F0
80
E0
80
F0
ENDCHAR
STARTCHAR U+00CA
ENCODING 202
SWIDTH 500 0
DWIDTH 5 0
BBX 4 7 0 0
BITMAP
60
90
F0
80
E0
80
F0
ENDCHAR
STARTCHAR U+00CB
ENCODING 203
SWIDTH 500 0
DWIDTH 5 0
BBX 4 7 0 0
BITMAP
A0
00
F0
80
E0
80
F0
ENDCHAR
STARTCHAR U+00CC
ENCODING 204
SWIDTH 400 0
DWIDTH 4 0
BBX 3 7 0 0
BITMAP
40
20
E0
40
40
40
E0
ENDCHAR
STARTCHAR U+00CD
ENCODING 205
SWIDTH 400 0
DWIDTH 4 0
BBX 3 7 0 0
BITMAP
20
40
E0
40
40
40
E0
ENDCHAR
STARTCHAR U+00CE
ENCODING 206
SWIDTH 400 0
DWIDTH 4 0
BBX 3 7 0 0
BITMAP
40
A0
E0
40
40
40
E0
ENDCHAR
STARTCHAR U+00CF
ENCODING 207
SWIDTH 400 0
DWIDTH 4 0
BBX 3 7 0 0
BITMAP
A0
00
E0
40
40
40
E0
ENDCHAR
STARTCHAR U+00D0
ENCODING 208
SWIDTH 600 0
DWIDTH 6 0
BBX 5 6 0 0
BITMAP
70
48
48
E8
48
70
ENDCHAR
STARTCHAR U+00D1
ENCODING 209
SWIDTH 500 0
DWIDTH 5 0
BBX 4 7 0 0
BITMAP
50
A0
90
D0
B0
90
90
ENDCHAR
STARTCHAR U+00D2
ENCODING 210
SWIDTH 500 0
DWIDTH 5 0
BBX 4 7 0 0
BITMAP
40
20
60
90
90
90
60
ENDCHAR
STARTCHAR U+00D3
ENCODING 211
SWIDTH 500 0
DWIDTH 5 0
BBX 4 7 0 0
BITMAP
20
40
60
90
90
90
60
ENDCHAR
STARTCHAR U+00D4
ENCODING 212
SWIDTH 500 0
DWIDTH 5 0
BBX 4 7 0 0
BITMAP
60
90
60
90
90
90
60
ENDCHAR
STARTCHAR U+00D5
ENCODING 213
SWIDTH 500 0
DWIDTH 5 0
BBX 4 7 0 0
BITMAP
50
A0
60
90
90
90
60
ENDCHAR
STARTCHAR U+00D6
ENCODING 214
SWIDTH 500 0
DWIDTH 5 0
BBX 4 7 0 0
BITMAP
A0
00
60
90
90
90
60
ENDCHAR
STARTCHAR U+00D7
ENCODING 215
SWIDTH 400 0
DWIDTH 4 0
BBX 3 3 0 1
BITMAP
A0
40
A0
ENDCHAR
STARTCHAR U+00D8
ENCODING 216
SWIDTH 700 0
DWIDTH 7 0
BBX 6 6 0 0
BITMAP
34
48
58
68
48
B0
ENDCHAR
STARTCHAR U+00D9
ENCODING 217
SWIDTH 500 0
DWIDTH 5 0
BBX 4 7 0 0
BITMAP
40
20
90
90
90
90
60
ENDCHAR
STARTCHAR U+00DA
ENCODING 218
SWIDTH 500 0
DWIDTH 5 0
BBX 4 7 0 0
BITMAP
20
40
90
90
90
90
60
ENDCHAR
STARTCHAR U+00DB
ENCODING 219
SWIDTH 500 0
DWIDTH 5 0
BBX 4 7 0 0
BITMAP
20
50
00
90
90
90
60
ENDCHAR
STARTCHAR U+00DC
ENCODING 220
SWIDTH 500 0
DWIDTH 5 0
BBX 4 7 0 0
BITMAP
A0
00
90
90
90
90
60
ENDCHAR
STARTCHAR U+00DD
ENCODING 221
SWIDTH 600 0
DWIDTH 6 0
BBX 5 7 0 0
BITMAP
10
20
88
50
20
20
20
ENDCHAR
STARTCHAR U+00DE
ENCODING 222
SWIDTH 500 0
DWIDTH 5 0
BBX 4 6 0 0
BITMAP
80
E0
90
90
E0
80
ENDCHAR
STARTCHAR U+00DF
ENCODING 223
SWIDTH 500 0
DWIDTH 5 0
BBX 4 6 0 0
BITMAP
60
90
A0
90
90
A0
ENDCHAR
STARTCHAR U+00E0
ENCODING 224
SWIDTH 500 0
DWIDTH 5 0
BBX 4 7 0 0
BITMAP
40
20
60
10
70
90
70
ENDCHAR
STARTCHAR U+00E1
ENCODING 225
SWIDTH 500 0
DWIDTH 5 0
BBX 4 7 0 0
BITMAP
20
40
60
10
70
90
70
ENDCHAR
STARTCHAR U+00E2
ENCODING 226
SWIDTH 500 0
DWIDTH 5 0
BBX 4 7 0 0
BITMAP
60
90
60
10
70
90
70
ENDCHAR
STARTCHAR U+00E3
ENCODING 227
SWIDTH 500 0
DWIDTH 5 0
BBX 4 7 0 0
BITMAP
50
A0
60
10
70
90
70
ENDCHAR
STARTCHAR U+00E4
ENCODING 228
SWIDTH 500 0
DWIDTH 5 0
BBX 4 7 0 0
BITMAP
A0
00
60
10
70
90
70
ENDCHAR
STARTCHAR U+00E5
ENCODING 229
SWIDTH 500 0
DWIDTH 5 0
BBX 4 7 0 0
BITMAP
60
00
60
10
70
90
70
ENDCHAR
STARTCHAR U+00E6
ENCODING 230
SWIDTH 700 0
DWIDTH 7 0
BBX 6 5 0 0
BITMAP
58
34
78
B0
68
ENDCHAR
STARTCHAR U+00E7
ENCODING 231
SWIDTH 500 0
DWIDTH 5 0
BBX 4 6 0 -1
BITMAP
60
90
80
90
60
C0
ENDCHAR
STARTCHAR U+00E8
ENCODING 232
SWIDTH 500 0
DWIDTH 5 0
BBX 4 7 0 0
BITMAP
40
20
60
90
F0
80
60
ENDCHAR
STARTCHAR U+00E9
ENCODING 233
SWIDTH 500 0
DWIDTH 5 0
BBX 4 7 0 0
BITMAP
20
40
60
90
F0
80
60
ENDCHAR
STARTCHAR U+00EA
ENCODING 234
SWIDTH 500 0
DWIDTH 5 0
BBX 4 7 0 0
BITMAP
60
90
60
90
F0
80
60
ENDCHAR
STARTCHAR U+00EB
ENCODING 235
SWIDTH 500 0
DWIDTH 5 0
BBX 4 7 0 0
BITMAP
A0
00
60
90
F0
80
60
ENDCHAR
STARTCHAR U+00EC
ENCODING 236
SWIDTH 400 0
DWIDTH 4 0
BBX 3 7 0 0
BITMAP
80
40
00
C0
40
40
E0
ENDCHAR
STARTCHAR U+00ED
ENCODING 237
SWIDTH 400 0
DWIDTH 4 0
BBX 3 7 0 0
BITMAP
40
80
00
C0
40
40
E0
ENDCHAR
STARTCHAR U+00EE
ENCODING 238
SWIDTH 400 0
DWIDTH 4 0
BBX 3 7 0 0
BITMAP
40
A0
00
C0
40
40
E0
ENDCHAR
STARTCHAR U+00EF
ENCODING 239
SWIDTH 400 0
DWIDTH 4 0
BBX 3 7 0 0
BITMAP
A0
00
C0
40
40
40
E0
ENDCHAR
STARTCHAR U+00F0
ENCODING 240
SWIDTH 500 0
DWIDTH 5 0
BBX 4 6 0 0
BITMAP
60
30
70
90
90
70
ENDCHAR
STARTCHAR U+00F1
ENCODING 241
SWIDTH 500 0
DWIDTH 5 0
BBX 4 7 0 0
BITMAP
50
A0
E0
90
90
90
90
ENDCHAR
STARTCHAR U+00F2
ENCODING 242
SWIDTH 500 0
DWIDTH 5 0
BBX 4 7 0 0
BITMAP
40
20
60
90
90
90
60
ENDCHAR
STARTCHAR U+00F3
ENCODING 243
SWIDTH 500 0
DWIDTH 5 0
BBX 4 7 0 0
BITMAP
20
40
60
90
90
90
60
ENDCHAR
STARTCHAR U+00F4
ENCODING 244
SWIDTH 500 0
DWIDTH 5 0
BBX 4 7 0 0
BITMAP
60
90
60
90
90
90
60
ENDCHAR
STARTCHAR U+00F5
ENCODING 245
SWIDTH 500 0
DWIDTH 5 0
BBX 4 7 0 0
BITMAP
50
A0
60
90
90
90
60
ENDCHAR
STARTCHAR U+00F6
ENCODING 246
SWIDTH 500 0
DWIDTH 5 0
BBX 4 7 0 0
BITMAP
A0
00
60
90
90
90
60
ENDCHAR
STARTCHAR U+00F7
ENCODING 247
SWIDTH 600 0
DWIDTH 6 0
BBX 5 5 0 0
BITMAP
20
00
F8
00
20
ENDCHAR
STARTCHAR U+00F8
ENCODING 248
SWIDTH 700 0
DWIDTH 7 0
BBX 6 6 0 0
BITMAP
34
48
58
68
48
B0
ENDCHAR
STARTCHAR U+00F9
ENCODING 249
SWIDTH 500 0
DWIDTH 5 0
BBX 4 7 0 0
BITMAP
40
20
90
90
90
90
70
ENDCHAR
STARTCHAR U+00FA
ENCODING 250
SWIDTH 500 0
DWIDTH 5 0
BBX 4 7 0 0
BITMAP
20
40
90
90
90
90
70
ENDCHAR
STARTCHAR U+00FB
ENCODING 251
SWIDTH 500 0
DWIDTH 5 0
BBX 4 7 0 0
BITMAP
20
50
00
90
90
90
70
ENDCHAR
STARTCHAR U+00FC
ENCODING 252
SWIDTH 500 0
DWIDTH 5 0
BBX 4 7 0 0
BITMAP
A0
00
90
90
90
90
70
ENDCHAR
STARTCHAR U+00FD
ENCODING 253
SWIDTH 500 0
DWIDTH 5 0
BBX 4 8 0 -1
BITMAP
20
40
90
90
90
70
10
E0
ENDCHAR
STARTCHAR U+00FE
ENCODING 254
SWIDTH 500 0
DWIDTH 5 0
BBX 4 7 0 -1
BITMAP
80
E0
90
90
90
E0
80
ENDCHAR
STARTCHAR U+00FF
ENCODING 255
SWIDTH 500 0
DWIDTH 5 0
BBX 4 8 0 -1
BITMAP
A0
00
90
90
90
70
10
E0
ENDCHAR
STARTCHAR U+0100
ENCODING 256
SWIDTH 500 0
DWIDTH 5 0
BBX 4 7 0 0
BITMAP
E0
00
60
90
F0
90
90
ENDCHAR
STARTCHAR U+0101
ENCODING 257
SWIDTH 500 0
DWIDTH 5 0
BBX 4 7 0 0
BITMAP
E0
00
60
10
70
90
70
ENDCHAR
STARTCHAR U+0102
ENCODING 258
SWIDTH 500 0
DWIDTH 5 0
BBX 4 7 0 0
BITMAP
90
60
60
90
F0
90
90
ENDCHAR
STARTCHAR U+0103
ENCODING 259
SWIDTH 500 0
DWIDTH 5 0
BBX 4 7 0 0
BITMAP
90
60
60
10
70
90
70
ENDCHAR
STARTCHAR U+0104
ENCODING 260
SWIDTH 600 0
DWIDTH 6 0
BBX 5 7 0 -1
BITMAP
60
90
90
F0
90
90
08
ENDCHAR
STARTCHAR U+0105
ENCODING 261
SWIDTH 600 0
DWIDTH 6 0
BBX 5 6 0 -1
BITMAP
60
10
70
90
70
08
ENDCHAR
STARTCHAR U+0106
ENCODING 262
SWIDTH 500 0
DWIDTH 5 0
BBX 4 7 0 0
BITMAP
20
40
60
90
80
90
60
ENDCHAR
STARTCHAR U+0107
ENCODING 263
SWIDTH 500 0
DWIDTH 5 0
BBX 4 7 0 0
BITMAP
20
40
60
90
80
90
60
ENDCHAR
STARTCHAR U+0108
ENCODING 264
SWIDTH 500 0
DWIDTH 5 0
BBX 4 7 0 0
BITMAP
60
90
60
90
80
90
60
ENDCHAR
STARTCHAR U+0109
ENCODING 265
SWIDTH 500 0
DWIDTH 5 0
BBX 4 7 0 0
BITMAP
60
90
60
90
80
90
60
ENDCHAR
STARTCHAR U+010A
ENCODING 266
SWIDTH 500 0
DWIDTH 5 0
BBX 4 7 0 0
BITMAP
40
00
60
90
80
90
60
ENDCHAR
STARTCHAR U+010B
ENCODING 267
SWIDTH 500 0
DWIDTH 5 0
BBX 4 7 0 0
BITMAP
40
00
60
90
80
90
60
ENDCHAR
STARTCHAR U+010C
ENCODING 268
SWIDTH 500 0
DWIDTH 5 0
BBX 4 7 0 0
BITMAP
50
20
60
90
80
90
60
ENDCHAR
STARTCHAR U+010D
ENCODING 269
SWIDTH 500 0
DWIDTH 5 0
BBX 4 7 0 0
BITMAP
50
20
60
90
80
90
60
ENDCHAR
STARTCHAR U+010E
ENCODING 270
SWIDTH 500 0
DWIDTH 5 0
BBX 4 7 0 0
BITMAP
50
20
E0
90
90
90
E0
ENDCHAR
STARTCHAR U+010F
ENCODING 271
SWIDTH 700 0
DWIDTH 7 0
BBX 6 6 0 0
BITMAP
14
14
70
90
90
70
ENDCHAR
STARTCHAR U+0110
ENCODING 272
SWIDTH 600 0
DWIDTH 6 0
BBX 5 6 0 0
BITMAP
70
48
48
E8
48
70
ENDCHAR
STARTCHAR U+0111
ENCODING 273
SWIDTH 500 0
DWIDTH 5 0
BBX 5 6 0 0
BITMAP
10
38
70
90
90
70
ENDCHAR
STARTCHAR U+0112
ENCODING 274
SWIDTH 500 0
DWIDTH 5 0
BBX 4 7 0 0
BITMAP
E0
00
F0
80
E0
80
F0
ENDCHAR
STARTCHAR U+0113
ENCODING 275
SWIDTH 500 0
DWIDTH 5 0
BBX 4 7 0 0
BITMAP
E0
00
60
90
F0
80
60
ENDCHAR
STARTCHAR U+0114
ENCODING 276
SWIDTH 500 0
DWIDTH 5 0
BBX 4 7 0 0
BITMAP
90
60
F0
80
E0
80
F0
ENDCHAR
STARTCHAR U+0115
ENCODING 277
SWIDTH 500 0
DWIDTH 5 0
BBX 4 7 0 0
BITMAP
90
60
60
90
F0
80
60
ENDCHAR
STARTCHAR U+0116
ENCODING 278
SWIDTH 500 0
DWIDTH 5 0
BBX 4 7 0 0
BITMAP
40
00
F0
80
E0
80
F0
ENDCHAR
STARTCHAR U+0117
ENCODING 279
SWIDTH 500 0
DWIDTH 5 0
BBX 4 7 0 0
BITMAP
40
00
60
90
F0
80
60
ENDCHAR
STARTCHAR U+0118
ENCODING 280
SWIDTH 600 0
DWIDTH 6 0
BBX 5 7 0 -1
BITMAP
F0
80
E0
80
80
F0
08
ENDCHAR
STARTCHAR U+0119
ENCODING 281
SWIDTH 500 0
DWIDTH 5 0
BBX 4 6 0 -1
BITMAP
60
90
F0
80
60
10
ENDCHAR
STARTCHAR U+011A
ENCODING 282
SWIDTH 500 0
DWIDTH 5 0
BBX 4 7 0 0
BITMAP
50
20
F0
80
E0
80
F0
ENDCHAR
STARTCHAR U+011B
ENCODING 283
SWIDTH 500 0
DWIDTH 5 0
BBX 4 7 0 0
BITMAP
50
20
60
90
F0
80
60
ENDCHAR
STARTCHAR U+011C
ENCODING 284
SWIDTH 500 0
DWIDTH 5 0
BBX 4 7 0 0
BITMAP
60
90
70
80
B0
90
70
ENDCHAR
STARTCHAR U+011D
ENCODING 285
SWIDTH 500 0
DWIDTH 5 0
BBX 4 8 0 -1
BITMAP
60
90
70
90
90
70
10
60
ENDCHAR
STARTCHAR U+011E
ENCODING 286
SWIDTH 500 0
DWIDTH 5 0
BBX 4 7 0 0
BITMAP
90
60
70
80
B0
90
70
ENDCHAR
STARTCHAR U+011F
ENCODING 287
SWIDTH 500 0
DWIDTH 5 0
BBX 4 8 0 -1
BITMAP
90
60
70
90
90
70
10
60
ENDCHAR
STARTCHAR U+0120
ENCODING 288
SWIDTH 500 0
DWIDTH 5 0
BBX 4 7 0 0
BITMAP
20
00
70
80
B0
90
70
ENDCHAR
STARTCHAR U+0121
ENCODING 289
SWIDTH 500 0
DWIDTH 5 0
BBX 4 8 0 -1
BITMAP
20
00
70
90
90
70
10
60
ENDCHAR
STARTCHAR U+0122
ENCODING 290
SWIDTH 500 0
DWIDTH 5 0
BBX 4 7 0 -1
BITMAP
60
90
80
B0
90
70
20
ENDCHAR
STARTCHAR U+0123
ENCODING 291
SWIDTH 500 0
DWIDTH 5 0
BBX 4 8 0 -1
BITMAP
20
00
70
90
90
70
10
60
ENDCHAR
STARTCHAR U+0124
ENCODING 292
SWIDTH 500 0
DWIDTH 5 0
BBX 4 7 0 0
BITMAP
60
90
00
90
F0
90
90
ENDCHAR
STARTCHAR U+0125
ENCODING 293
SWIDTH 600 0
DWIDTH 6 0
BBX 5 7 0 0
BITMAP
40
A0
40
70
48
48
48
ENDCHAR
STARTCHAR U+0126
ENCODING 294
SWIDTH 700 0
DWIDTH 7 0
BBX 6 7 0 0
BITMAP
48
FC
48
78
48
48
48
ENDCHAR
STARTCHAR U+0127
ENCODING 295
SWIDTH 600 0
DWIDTH 6 0
BBX 5 7 0 0
BITMAP
40
F0
40
70
48
48
48
ENDCHAR
STARTCHAR U+0128
ENCODING 296
SWIDTH 400 0
DWIDTH 4 0
BBX 4 7 0 0
BITMAP
50
A0
E0
40
40
40
E0
ENDCHAR
STARTCHAR U+0129
ENCODING 297
SWIDTH 500 0
DWIDTH 5 0
BBX 4 7 0 0
BITMAP
50
A0
60
20
20
20
70
ENDCHAR
STARTCHAR U+012A
ENCODING 298
SWIDTH 400 0
DWIDTH 4 0
BBX 3 7 0 0
BITMAP
E0
00
E0
40
40
40
E0
ENDCHAR
STARTCHAR U+012B
ENCODING 299
SWIDTH 400 0
DWIDTH 4 0
BBX 3 7 0 0
BITMAP
E0
00
C0
40
40
40
E0
ENDCHAR
STARTCHAR U+012C
ENCODING 300
SWIDTH 500 0
DWIDTH 5 0
BBX 4 7 0 0
BITMAP
90
60
70
20
20
20
70
ENDCHAR
STARTCHAR U+012D
ENCODING 301
SWIDTH 500 0
DWIDTH 5 0
BBX 4 7 0 0
BITMAP
90
60
60
20
20
20
70
ENDCHAR
STARTCHAR U+012E
ENCODING 302
SWIDTH 400 0
DWIDTH 4 0
BBX 3 7 0 -1
BITMAP
E0
40
40
40
40
E0
40
ENDCHAR
STARTCHAR U+012F
ENCODING 303
SWIDTH 400 0
DWIDTH 4 0
BBX 3 8 0 -1
BITMAP
40
00
C0
40
40
40
E0
40
ENDCHAR
STARTCHAR U+0130
ENCODING 304
SWIDTH 400 0
DWIDTH 4 0
BBX 3 7 0 0
BITMAP
40
00
E0
40
40
40
E0
ENDCHAR
STARTCHAR U+0131
ENCODING 305
SWIDTH 400 0
DWIDTH 4 0
BBX 3 5 0 0
BITMAP
C0
40
40
40
E0
ENDCHAR
STARTCHAR U+0132
ENCODING 306
SWIDTH 500 0
DWIDTH 5 0
BBX 4 7 0 -1
BITMAP
90
90
90
90
90
90
20
ENDCHAR
STARTCHAR U+0133
ENCODING 307
SWIDTH 500 0
DWIDTH 5 0
BBX 4 8 0 -1
BITMAP
90
00
90
90
90
90
90
20
ENDCHAR
STARTCHAR U+0134
ENCODING 308
SWIDTH 600 0
DWIDTH 6 0
BBX 5 7 0 0
BITMAP
10
28
10
10
10
90
60
ENDCHAR
STARTCHAR U+0135
ENCODING 309
SWIDTH 400 0
DWIDTH 4 0
BBX 3 8 0 -1
BITMAP
40
A0
E0
20
20
20
20
C0
ENDCHAR
STARTCHAR U+0136
ENCODING 310
SWIDTH 500 0
DWIDTH 5 0
BBX 4 7 0 -1
BITMAP
90
A0
C0
A0
90
90
20
ENDCHAR
STARTCHAR U+0137
ENCODING 311
SWIDTH 500 0
DWIDTH 5 0
BBX 4 7 0 -1
BITMAP
80
90
A0
C0
A0
90
40
ENDCHAR
STARTCHAR U+0138
ENCODING 312
SWIDTH 500 0
DWIDTH 5 0
BBX 4 5 0 0
BITMAP
90
A0
C0
A0
90
ENDCHAR
STARTCHAR U+0139
ENCODING 313
SWIDTH 500 0
DWIDTH 5 0
BBX 4 7 0 0
BITMAP
20
40
80
80
80
80
F0
ENDCHAR
STARTCHAR U+013A
ENCODING 314
SWIDTH 400 0
DWIDTH 4 0
BBX 3 7 0 0
BITMAP
20
40
C0
40
40
40
60
ENDCHAR
STARTCHAR U+013B
ENCODING 315
SWIDTH 500 0
DWIDTH 5 0
BBX 4 7 0 -1
BITMAP
80
80
80
80
80
F0
20
ENDCHAR
STARTCHAR U+013C
ENCODING 316
SWIDTH 400 0
DWIDTH 4 0
BBX 3 7 0 -1
BITMAP
C0
40
40
40
40
20
40
ENDCHAR
STARTCHAR U+013D
ENCODING 317
SWIDTH 500 0
DWIDTH 5 0
BBX 4 6 0 0
BITMAP
90
90
80
80
80
F0
ENDCHAR
STARTCHAR U+013E
ENCODING 318
SWIDTH 500 0
DWIDTH 5 0
BBX 4 6 0 0
BITMAP
D0
50
40
40
40
60
ENDCHAR
STARTCHAR U+013F
ENCODING 319
SWIDTH 500 0
DWIDTH 5 0
BBX 4 6 0 0
BITMAP
80
80
A0
80
80
F0
ENDCHAR
STARTCHAR U+0140
ENCODING 320
SWIDTH 500 0
DWIDTH 5 0
BBX 4 6 0 0
BITMAP
C0
40
50
40
40
60
ENDCHAR
STARTCHAR U+0141
ENCODING 321
SWIDTH 600 0
DWIDTH 6 0
BBX 5 6 0 0
BITMAP
40
40
60
C0
40
78
ENDCHAR
STARTCHAR U+0142
ENCODING 322
SWIDTH 400 0
DWIDTH 4 0
BBX 3 6 0 0
BITMAP
C0
40
60
C0
40
60
ENDCHAR
STARTCHAR U+0143
ENCODING 323
SWIDTH 500 0
DWIDTH 5 0
BBX 4 7 0 0
BITMAP
20
40
90
D0
B0
90
90
ENDCHAR
STARTCHAR U+0144
ENCODING 324
SWIDTH 500 0
DWIDTH 5 0
BBX 4 7 0 0
BITMAP
20
40
E0
90
90
90
90
ENDCHAR
STARTCHAR U+0145
ENCODING 325
SWIDTH 500 0
DWIDTH 5 0
BBX 4 7 0 -1
BITMAP
90
D0
B0
90
90
90
20
ENDCHAR
STARTCHAR U+0146
ENCODING 326
SWIDTH 500 0
DWIDTH 5 0
BBX 4 6 0 -1
BITMAP
E0
90
90
90
90
20
ENDCHAR
STARTCHAR U+0147
ENCODING 327
SWIDTH 500 0
DWIDTH 5 0
BBX 4 7 0 0
BITMAP
50
20
90
D0
B0
90
90
ENDCHAR
STARTCHAR U+0148
ENCODING 328
SWIDTH 500 0
DWIDTH 5 0
BBX 4 7 0 0
BITMAP
50
20
E0
90
90
90
90
ENDCHAR
STARTCHAR U+0149
ENCODING 329
SWIDTH 600 0
DWIDTH 6 0
BBX 5 7 0 0
BITMAP
40
80
70
48
48
48
48
ENDCHAR
STARTCHAR U+014A
ENCODING 330
SWIDTH 500 0
DWIDTH 5 0
BBX 4 7 0 -1
BITMAP
90
D0
B0
90
90
90
20
ENDCHAR
STARTCHAR U+014B
ENCODING 331
SWIDTH 500 0
DWIDTH 5 0
BBX 4 6 0 -1
BITMAP
E0
90
90
90
90
20
ENDCHAR
STARTCHAR U+014C
ENCODING 332
SWIDTH 500 0
DWIDTH 5 0
BBX 4 7 0 0
BITMAP
E0
00
60
90
90
90
60
ENDCHAR
STARTCHAR U+014D
ENCODING 333
SWIDTH 500 0
DWIDTH 5 0
BBX 4 7 0 0
BITMAP
E0
00
60
90
90
90
60
ENDCHAR
STARTCHAR U+014E
ENCODING 334
SWIDTH 500 0
DWIDTH 5 0
BBX 4 7 0 0
BITMAP
90
60
60
90
90
90
60
ENDCHAR
STARTCHAR U+014F
ENCODING 335
SWIDTH 500 0
DWIDTH 5 0
BBX 4 7 0 0
BITMAP
90
60
60
90
90
90
60
ENDCHAR
STARTCHAR U+0150
ENCODING 336
SWIDTH 500 0
DWIDTH 5 0
BBX 4 7 0 0
BITMAP
50
A0
60
90
90
90
60
ENDCHAR
STARTCHAR U+0151
ENCODING 337
SWIDTH 500 0
DWIDTH 5 0
BBX 4 7 0 0
BITMAP
50
A0
60
90
90
90
60
ENDCHAR
STARTCHAR U+0152
ENCODING 338
SWIDTH 600 0
DWIDTH 6 0
BBX 5 6 0 0
BITMAP
78
A0
B0
A0
A0
78
ENDCHAR
STARTCHAR U+0153
ENCODING 339
SWIDTH 600 0
DWIDTH 6 0
BBX 5 5 0 0
BITMAP
78
A0
B0
A0
78
ENDCHAR
STARTCHAR U+0154
ENCODING 340
SWIDTH 500 0
DWIDTH 5 0
BBX 4 7 0 0
BITMAP
20
40
E0
90
E0
A0
90
ENDCHAR
STARTCHAR U+0155
ENCODING 341
SWIDTH 500 0
DWIDTH 5 0
BBX 4 7 0 0
BITMAP
20
40
B0
C0
80
80
80
ENDCHAR
STARTCHAR U+0156
ENCODING 342
SWIDTH 500 0
DWIDTH 5 0
BBX 4 7 0 -1
BITMAP
E0
90
90
E0
A0
90
40
ENDCHAR
STARTCHAR U+0157
ENCODING 343
SWIDTH 500 0
DWIDTH 5 0
BBX 4 6 0 -1
BITMAP
B0
C0
80
80
40
80
ENDCHAR
STARTCHAR U+0158
ENCODING 344
SWIDTH 500 0
DWIDTH 5 0
BBX 4 7 0 0
BITMAP
50
20
E0
90
E0
A0
90
ENDCHAR
STARTCHAR U+0159
ENCODING 345
SWIDTH 500 0
DWIDTH 5 0
BBX 4 7 0 0
BITMAP
50
20
B0
C0
80
80
80
ENDCHAR
STARTCHAR U+015A
ENCODING 346
SWIDTH 500 0
DWIDTH 5 0
BBX 4 7 0 0
BITMAP
20
40
70
80
60
10
E0
ENDCHAR
STARTCHAR U+015B
ENCODING 347
SWIDTH 500 0
DWIDTH 5 0
BBX 4 7 0 0
BITMAP
20
40
70
80
60
10
E0
ENDCHAR
STARTCHAR U+015C
ENCODING 348
SWIDTH 500 0
DWIDTH 5 0
BBX 4 7 0 0
BITMAP
60
90
70
80
60
10
E0
ENDCHAR
STARTCHAR U+015D
ENCODING 349
SWIDTH 500 0
DWIDTH 5 0
BBX 4 7 0 0
BITMAP
60
90
70
80
60
10
E0
ENDCHAR
STARTCHAR U+015E
ENCODING 350
SWIDTH 500 0
DWIDTH 5 0
BBX 4 7 0 -1
BITMAP
60
90
40
20
90
60
40
ENDCHAR
STARTCHAR U+015F
ENCODING 351
SWIDTH 500 0
DWIDTH 5 0
BBX 4 6 0 -1
BITMAP
70
80
60
10
E0
40
ENDCHAR
STARTCHAR U+0160
ENCODING 352
SWIDTH 500 0
DWIDTH 5 0
BBX 4 7 0 0
BITMAP
50
20
70
80
60
10
E0
ENDCHAR
STARTCHAR U+0161
ENCODING 353
SWIDTH 500 0
DWIDTH 5 0
BBX 4 7 0 0
BITMAP
50
20
70
80
60
10
E0
ENDCHAR
STARTCHAR U+0162
ENCODING 354
SWIDTH 600 0
DWIDTH 6 0
BBX 5 7 0 -1
BITMAP
F8
20
20
20
20
10
20
ENDCHAR
STARTCHAR U+0163
ENCODING 355
SWIDTH 400 0
DWIDTH 4 0
BBX 3 7 0 -1
BITMAP
40
E0
40
40
40
20
40
ENDCHAR
STARTCHAR U+0164
ENCODING 356
SWIDTH 600 0
DWIDTH 6 0
BBX 5 7 0 0
BITMAP
50
20
F8
20
20
20
20
ENDCHAR
STARTCHAR U+0165
ENCODING 357
SWIDTH 600 0
DWIDTH 6 0
BBX 5 6 0 0
BITMAP
48
E8
40
40
40
20
ENDCHAR
STARTCHAR U+0166
ENCODING 358
SWIDTH 600 0
DWIDTH 6 0
BBX 5 6 0 0
BITMAP
F8
20
20
70
20
20
ENDCHAR
STARTCHAR U+0167
ENCODING 359
SWIDTH 400 0
DWIDTH 4 0
BBX 3 6 0 0
BITMAP
40
E0
40
E0
40
20
ENDCHAR
STARTCHAR U+0168
ENCODING 360
SWIDTH 500 0
DWIDTH 5 0
BBX 4 7 0 0
BITMAP
50
A0
90
90
90
90
60
ENDCHAR
STARTCHAR U+0169
ENCODING 361
SWIDTH 500 0
DWIDTH 5 0
BBX 4 7 0 0
BITMAP
50
A0
90
90
90
90
70
ENDCHAR
STARTCHAR U+016A
ENCODING 362
SWIDTH 500 0
DWIDTH 5 0
BBX 4 7 0 0
BITMAP
E0
00
90
90
90
90
60
ENDCHAR
STARTCHAR U+016B
ENCODING 363
SWIDTH 500 0
DWIDTH 5 0
BBX 4 7 0 0
BITMAP
E0
00
90
90
90
90
70
ENDCHAR
STARTCHAR U+016C
ENCODING 364
SWIDTH 500 0
DWIDTH 5 0
BBX 4 7 0 0
BITMAP
90
60
90
90
90
90
60
ENDCHAR
STARTCHAR U+016D
ENCODING 365
SWIDTH 500 0
DWIDTH 5 0
BBX 4 7 0 0
BITMAP
90
60
90
90
90
90
70
ENDCHAR
STARTCHAR U+016E
ENCODING 366
SWIDTH 500 0
DWIDTH 5 0
BBX 4 7 0 0
BITMAP
60
00
90
90
90
90
60
ENDCHAR
STARTCHAR U+016F
ENCODING 367
SWIDTH 500 0
DWIDTH 5 0
BBX 4 7 0 0
BITMAP
60
00
90
90
90
90
70
ENDCHAR
STARTCHAR U+0170
ENCODING 368
SWIDTH 500 0
DWIDTH 5 0
BBX 4 7 0 0
BITMAP
50
A0
90
90
90
90
60
ENDCHAR
STARTCHAR U+0171
ENCODING 369
SWIDTH 500 0
DWIDTH 5 0
BBX 4 7 0 0
BITMAP
50
A0
90
90
90
90
70
ENDCHAR
STARTCHAR U+0172
ENCODING 370
SWIDTH 500 0
DWIDTH 5 0
BBX 4 6 0 -1
BITMAP
90
90
90
90
60
10
ENDCHAR
STARTCHAR U+0173
ENCODING 371
SWIDTH 600 0
DWIDTH 6 0
BBX 5 6 0 -1
BITMAP
90
90
90
90
70
08
ENDCHAR
STARTCHAR U+0174
ENCODING 372
SWIDTH 600 0
DWIDTH 6 0
BBX 5 7 0 0
BITMAP
20
50
88
A8
A8
50
50
ENDCHAR
STARTCHAR U+0175
ENCODING 373
SWIDTH 600 0
DWIDTH 6 0
BBX 5 7 0 0
BITMAP
20
50
88
A8
A8
50
50
ENDCHAR
STARTCHAR U+0176
ENCODING 374
SWIDTH 600 0
DWIDTH 6 0
BBX 5 7 0 0
BITMAP
20
50
88
50
20
20
20
ENDCHAR
STARTCHAR U+0177
ENCODING 375
SWIDTH 500 0
DWIDTH 5 0
BBX 4 8 0 -1
BITMAP
E0
00
90
90
90
70
10
E0
ENDCHAR
STARTCHAR U+0178
ENCODING 376
SWIDTH 600 0
DWIDTH 6 0
BBX 5 7 0 0
BITMAP
50
00
88
50
20
20
20
ENDCHAR
STARTCHAR U+0179
ENCODING 377
SWIDTH 500 0
DWIDTH 5 0
BBX 4 7 0 0
BITMAP
20
40
F0
20
40
80
F0
ENDCHAR
STARTCHAR U+017A
ENCODING 378
SWIDTH 500 0
DWIDTH 5 0
BBX 4 7 0 0
BITMAP
20
40
F0
20
40
80
F0
ENDCHAR
STARTCHAR U+017B
ENCODING 379
SWIDTH 500 0
DWIDTH 5 0
BBX 4 7 0 0
BITMAP
20
00
F0
20
40
80
F0
ENDCHAR
STARTCHAR U+017C
ENCODING 380
SWIDTH 500 0
DWIDTH 5 0
BBX 4 7 0 0
BITMAP
20
00
F0
20
40
80
F0
ENDCHAR
STARTCHAR U+017D
ENCODING 381
SWIDTH 500 0
DWIDTH 5 0
BBX 4 7 0 0
BITMAP
50
20
F0
20
40
80
F0
ENDCHAR
STARTCHAR U+017E
ENCODING 382
SWIDTH 500 0
DWIDTH 5 0
BBX 4 7 0 0
BITMAP
50
20
F0
20
40
80
F0
ENDCHAR
STARTCHAR U+017F
ENCODING 383
SWIDTH 400 0
DWIDTH 4 0
BBX 3 5 0 0
BITMAP
60
80
80
80
80
ENDCHAR
STARTCHAR U+0191
ENCODING 401
SWIDTH 600 0
DWIDTH 6 0
BBX 5 7 0 -1
BITMAP
38
20
30
20
20
A0
40
ENDCHAR
STARTCHAR U+0192
ENCODING 402
SWIDTH 600 0
DWIDTH 6 0
BBX 5 7 0 -1
BITMAP
18
20
70
20
20
A0
40
ENDCHAR
STARTCHAR U+019D
ENCODING 413
SWIDTH 500 0
DWIDTH 5 0
BBX 4 7 0 -1
BITMAP
90
D0
B0
90
90
90
80
ENDCHAR
STARTCHAR U+019E
ENCODING 414
SWIDTH 500 0
DWIDTH 5 0
BBX 4 6 0 -1
BITMAP
E0
90
90
90
90
10
ENDCHAR
STARTCHAR U+01B5
ENCODING 437
SWIDTH 500 0
DWIDTH 5 0
BBX 4 6 0 0
BITMAP
F0
10
F0
40
80
F0
ENDCHAR
STARTCHAR U+01B6
ENCODING 438
SWIDTH 500 0
DWIDTH 5 0
BBX 4 5 0 0
BITMAP
F0
20
F0
40
F0
ENDCHAR
STARTCHAR U+01CD
ENCODING 461
SWIDTH 500 0
DWIDTH 5 0
BBX 4 7 0 0
BITMAP
90
60
60
90
F0
90
90
ENDCHAR
STARTCHAR U+01CE
ENCODING 462
SWIDTH 500 0
DWIDTH 5 0
BBX 4 7 0 0
BITMAP
90
60
60
10
70
90
70
ENDCHAR
STARTCHAR U+01CF
ENCODING 463
SWIDTH 500 0
DWIDTH 5 0
BBX 4 7 0 0
BITMAP
90
60
70
20
20
20
70
ENDCHAR
STARTCHAR U+01D0
ENCODING 464
SWIDTH 500 0
DWIDTH 5 0
BBX 4 7 0 0
BITMAP
90
60
00
60
20
20
70
ENDCHAR
STARTCHAR U+01D1
ENCODING 465
SWIDTH 500 0
DWIDTH 5 0
BBX 4 7 0 0
BITMAP
F0
00
60
90
90
90
60
ENDCHAR
STARTCHAR U+01D2
ENCODING 466
SWIDTH 500 0
DWIDTH 5 0
BBX 4 7 0 0
BITMAP
F0
00
60
90
90
90
60
ENDCHAR
STARTCHAR U+01D3
ENCODING 467
SWIDTH 500 0
DWIDTH 5 0
BBX 4 7 0 0
BITMAP
F0
00
90
90
90
90
60
ENDCHAR
STARTCHAR U+01D4
ENCODING 468
SWIDTH 500 0
DWIDTH 5 0
BBX 4 7 0 0
BITMAP
F0
00
90
90
90
90
70
ENDCHAR
STARTCHAR U+01E0
ENCODING 480
SWIDTH 500 0
DWIDTH 5 0
BBX 4 7 0 0
BITMAP
E0
40
60
90
F0
90
90
ENDCHAR
STARTCHAR U+01E1
ENCODING 481
SWIDTH 500 0
DWIDTH 5 0
BBX 4 7 0 0
BITMAP
E0
40
60
10
70
90
70
ENDCHAR
STARTCHAR U+01E2
ENCODING 482
SWIDTH 600 0
DWIDTH 6 0
BBX 5 7 0 0
BITMAP
70
00
78
A0
F0
A0
B8
ENDCHAR
STARTCHAR U+01E3
ENCODING 483
SWIDTH 700 0
DWIDTH 7 0
BBX 6 7 0 0
BITMAP
70
00
58
34
78
B0
68
ENDCHAR
STARTCHAR U+01E6
ENCODING 486
SWIDTH 500 0
DWIDTH 5 0
BBX 4 7 0 0
BITMAP
70
60
90
80
B0
90
70
ENDCHAR
STARTCHAR U+01E7
ENCODING 487
SWIDTH 500 0
DWIDTH 5 0
BBX 4 8 0 -1
BITMAP
50
20
70
90
90
70
10
60
ENDCHAR
STARTCHAR U+01F8
ENCODING 504
SWIDTH 500 0
DWIDTH 5 0
BBX 4 7 0 0
BITMAP
40
20
90
D0
B0
90
90
ENDCHAR
STARTCHAR U+01F9
ENCODING 505
SWIDTH 500 0
DWIDTH 5 0
BBX 4 7 0 0
BITMAP
40
20
E0
90
90
90
90
ENDCHAR
STARTCHAR U+01FC
ENCODING 508
SWIDTH 600 0
DWIDTH 6 0
BBX 5 7 0 0
BITMAP
10
20
78
A0
F0
A0
B8
ENDCHAR
STARTCHAR U+01FD
ENCODING 509
SWIDTH 700 0
DWIDTH 7 0
BBX 6 7 0 0
BITMAP
10
20
58
34
78
B0
68
ENDCHAR
STARTCHAR U+01FE
ENCODING 510
SWIDTH 700 0
DWIDTH 7 0
BBX 6 7 0 0
BITMAP
10
20
34
48
58
68
B0
ENDCHAR
STARTCHAR U+01FF
ENCODING 511
SWIDTH 700 0
DWIDTH 7 0
BBX 6 7 0 0
BITMAP
10
20
34
48
58
68
B0
ENDCHAR
STARTCHAR U+0200
ENCODING 512
SWIDTH 500 0
DWIDTH 5 0
BBX 4 7 0 0
BITMAP
A0
50
60
90
F0
90
90
ENDCHAR
STARTCHAR U+0201
ENCODING 513
SWIDTH 500 0
DWIDTH 5 0
BBX 4 7 0 0
BITMAP
A0
50
60
10
70
90
70
ENDCHAR
STARTCHAR U+0202
ENCODING 514
SWIDTH 500 0
DWIDTH 5 0
BBX 4 7 0 0
BITMAP
60
90
60
90
F0
90
90
ENDCHAR
STARTCHAR U+0203
ENCODING 515
SWIDTH 500 0
DWIDTH 5 0
BBX 4 7 0 0
BITMAP
60
90
60
10
70
90
70
ENDCHAR
STARTCHAR U+0204
ENCODING 516
SWIDTH 500 0
DWIDTH 5 0
BBX 4 7 0 0
BITMAP
A0
50
F0
80
E0
80
F0
ENDCHAR
STARTCHAR U+0205
ENCODING 517
SWIDTH 500 0
DWIDTH 5 0
BBX 4 7 0 0
BITMAP
A0
50
60
90
F0
80
60
ENDCHAR
STARTCHAR U+0206
ENCODING 518
SWIDTH 500 0
DWIDTH 5 0
BBX 4 7 0 0
BITMAP
60
90
F0
80
E0
80
F0
ENDCHAR
STARTCHAR U+0207
ENCODING 519
SWIDTH 500 0
DWIDTH 5 0
BBX 4 7 0 0
BITMAP
60
90
60
90
F0
80
60
ENDCHAR
STARTCHAR U+0208
ENCODING 520
SWIDTH 500 0
DWIDTH 5 0
BBX 4 7 0 0
BITMAP
A0
50
70
20
20
20
70
ENDCHAR
STARTCHAR U+0209
ENCODING 521
SWIDTH 500 0
DWIDTH 5 0
BBX 4 7 0 0
BITMAP
A0
50
00
60
20
20
70
ENDCHAR
STARTCHAR U+020A
ENCODING 522
SWIDTH 500 0
DWIDTH 5 0
BBX 4 7 0 0
BITMAP
60
90
70
20
20
20
70
ENDCHAR
STARTCHAR U+020B
ENCODING 523
SWIDTH 400 0
DWIDTH 4 0
BBX 4 7 0 0
BITMAP
60
90
00
60
20
20
70
ENDCHAR
STARTCHAR U+020C
ENCODING 524
SWIDTH 500 0
DWIDTH 5 0
BBX 4 7 0 0
BITMAP
A0
50
60
90
90
90
60
ENDCHAR
STARTCHAR U+020D
ENCODING 525
SWIDTH 500 0
DWIDTH 5 0
BBX 4 7 0 0
BITMAP
A0
50
60
90
90
90
60
ENDCHAR
STARTCHAR U+020E
ENCODING 526
SWIDTH 500 0
DWIDTH 5 0
BBX 4 7 0 0
BITMAP
60
90
60
90
90
90
60
ENDCHAR
STARTCHAR U+020F
ENCODING 527
SWIDTH 500 0
DWIDTH 5 0
BBX 4 7 0 0
BITMAP
60
90
60
90
90
90
60
ENDCHAR
STARTCHAR U+0210
ENCODING 528
SWIDTH 500 0
DWIDTH 5 0
BBX 4 7 0 0
BITMAP
A0
50
E0
90
E0
A0
90
ENDCHAR
STARTCHAR U+0211
ENCODING 529
SWIDTH 500 0
DWIDTH 5 0
BBX 4 7 0 0
BITMAP
A0
50
B0
C0
80
80
80
ENDCHAR
STARTCHAR U+0212
ENCODING 530
SWIDTH 500 0
DWIDTH 5 0
BBX 4 7 0 0
BITMAP
60
90
E0
90
E0
A0
90
ENDCHAR
STARTCHAR U+0213
ENCODING 531
SWIDTH 500 0
DWIDTH 5 0
BBX 4 7 0 0
BITMAP
F0
00
B0
C0
80
80
80
ENDCHAR
STARTCHAR U+0214
ENCODING 532
SWIDTH 500 0
DWIDTH 5 0
BBX 4 7 0 0
BITMAP
A0
50
90
90
90
90
60
ENDCHAR
STARTCHAR U+0215
ENCODING 533
SWIDTH 500 0
DWIDTH 5 0
BBX 4 7 0 0
BITMAP
A0
50
90
90
90
90
70
ENDCHAR
STARTCHAR U+0216
ENCODING 534
SWIDTH 500 0
DWIDTH 5 0
BBX 4 7 0 0
BITMAP
F0
00
90
90
90
90
60
ENDCHAR
STARTCHAR U+0217
ENCODING 535
SWIDTH 500 0
DWIDTH 5 0
BBX 4 7 0 0
BITMAP
F0
00
90
90
90
90
70
ENDCHAR
STARTCHAR U+0218
ENCODING 536
SWIDTH 500 0
DWIDTH 5 0
BBX 4 7 0 -1
BITMAP
60
90
40
20
90
60
40
ENDCHAR
STARTCHAR U+0219
ENCODING 537
SWIDTH 500 0
DWIDTH 5 0
BBX 4 6 0 -1
BITMAP
70
80
60
10
E0
40
ENDCHAR
STARTCHAR U+021A
ENCODING 538
SWIDTH 600 0
DWIDTH 6 0
BBX 5 7 0 -1
BITMAP
F8
20
20
20
20
20
40
ENDCHAR
STARTCHAR U+021B
ENCODING 539
SWIDTH 400 0
DWIDTH 4 0
BBX 3 7 0 -1
BITMAP
40
E0
40
40
40
20
40
ENDCHAR
STARTCHAR U+0226
ENCODING 550
SWIDTH 500 0
DWIDTH 5 0
BBX 4 7 0 0
BITMAP
40
00
60
90
F0
90
90
ENDCHAR
STARTCHAR U+0227
ENCODING 551
SWIDTH 500 0
DWIDTH 5 0
BBX 4 7 0 0
BITMAP
40
00
60
10
70
90
70
ENDCHAR
STARTCHAR U+0228
ENCODING 552
SWIDTH 600 0
DWIDTH 6 0
BBX 4 7 0 -1
BITMAP
F0
80
E0
80
80
F0
40
ENDCHAR
STARTCHAR U+0229
ENCODING 553
SWIDTH 500 0
DWIDTH 5 0
BBX 4 6 0 -1
BITMAP
60
90
F0
80
60
40
ENDCHAR
STARTCHAR U+03B1
ENCODING 945
SWIDTH 500 0
DWIDTH 5 0
BBX 4 5 0 0
BITMAP
50
A0
A0
A0
50
ENDCHAR
STARTCHAR U+2010
ENCODING 8208
SWIDTH 500 0
DWIDTH 5 0
BBX 4 1 0 2
BITMAP
F0
ENDCHAR
STARTCHAR U+2011
ENCODING 8209
SWIDTH 500 0
DWIDTH 5 0
BBX 4 1 0 2
BITMAP
F0
ENDCHAR
STARTCHAR U+2012
ENCODING 8210
SWIDTH 500 0
DWIDTH 5 0
BBX 4 1 0 2
BITMAP
F0
ENDCHAR
STARTCHAR U+2013
ENCODING 8211
SWIDTH 500 0
DWIDTH 5 0
BBX 4 1 0 2
BITMAP
F0
ENDCHAR
STARTCHAR U+2014
ENCODING 8212
SWIDTH 600 0
DWIDTH 6 0
BBX 5 1 0 2
BITMAP
F8
ENDCHAR
STARTCHAR U+2015
ENCODING 8213
SWIDTH 700 0
DWIDTH 7 0
BBX 6 1 0 2
BITMAP
FC
ENDCHAR
STARTCHAR U+203C
ENCODING 8252
SWIDTH 400 0
DWIDTH 4 0
BBX 3 6 0 0
BITMAP
A0
A0
A0
A0
00
A0
ENDCHAR
STARTCHAR U+203D
ENCODING 8253
SWIDTH 500 0
DWIDTH 5 0
BBX 4 6 0 0
BITMAP
60
D0
60
40
00
40
ENDCHAR
STARTCHAR U+2047
ENCODING 8263
SWIDTH 800 0
DWIDTH 8 0
BBX 7 6 0 0
BITMAP
44
AA
22
44
00
44
ENDCHAR
STARTCHAR U+2048
ENCODING 8264
SWIDTH 600 0
DWIDTH 6 0
BBX 5 6 0 0
BITMAP
68
A8
28
48
00
48
ENDCHAR
STARTCHAR U+2049
ENCODING 8265
SWIDTH 600 0
DWIDTH 6 0
BBX 5 6 0 0
BITMAP
90
A8
88
90
00
90
ENDCHAR
STARTCHAR U+204B
ENCODING 8267
SWIDTH 600 0
DWIDTH 6 0
BBX 5 6 0 0
BITMAP
F0
B8
B8
B0
A0
A0
ENDCHAR
STARTCHAR U+2070
ENCODING 8304
SWIDTH 400 0
DWIDTH 4 0
BBX 3 4 0 2
BITMAP
40
A0
A0
40
ENDCHAR
STARTCHAR U+2071
ENCODING 8305
SWIDTH 400 0
DWIDTH 4 0
BBX 3 4 0 2
BITMAP
40
C0
40
E0
ENDCHAR
STARTCHAR U+2074
ENCODING 8308
SWIDTH 400 0
DWIDTH 4 0
BBX 3 4 0 2
BITMAP
40
80
E0
40
ENDCHAR
STARTCHAR U+2075
ENCODING 8309
SWIDTH 400 0
DWIDTH 4 0
BBX 3 4 0 2
BITMAP
E0
C0
20
C0
ENDCHAR
STARTCHAR U+2076
ENCODING 8310
SWIDTH 400 0
DWIDTH 4 0
BBX 3 4 0 2
BITMAP
60
C0
A0
60
ENDCHAR
STARTCHAR U+2077
ENCODING 8311
SWIDTH 400 0
DWIDTH 4 0
BBX 3 4 0 2
BITMAP
E0
20
40
40
ENDCHAR
STARTCHAR U+2078
ENCODING 8312
SWIDTH 400 0
DWIDTH 4 0
BBX 3 4 0 2
BITMAP
40
A0
E0
40
ENDCHAR
STARTCHAR U+2079
ENCODING 8313
SWIDTH 400 0
DWIDTH 4 0
BBX 3 4 0 2
BITMAP
60
A0
60
C0
ENDCHAR
STARTCHAR U+207A
ENCODING 8314
SWIDTH 400 0
DWIDTH 4 0
BBX 3 3 0 2
BITMAP
40
E0
40
ENDCHAR
STARTCHAR U+207B
ENCODING 8315
SWIDTH 400 0
DWIDTH 4 0
BBX 3 1 0 3
BITMAP
E0
ENDCHAR
STARTCHAR U+207C
ENCODING 8316
SWIDTH 400 0
DWIDTH 4 0
BBX 3 3 0 2
BITMAP
E0
00
E0
ENDCHAR
STARTCHAR U+207D
ENCODING 8317
SWIDTH 300 0
DWIDTH 3 0
BBX 2 4 0 2
BITMAP
40
80
80
40
ENDCHAR
STARTCHAR U+207E
ENCODING 8318
SWIDTH 300 0
DWIDTH 3 0
BBX 2 4 0 2
BITMAP
80
40
40
80
ENDCHAR
STARTCHAR U+207F
ENCODING 8319
SWIDTH 400 0
DWIDTH 4 0
BBX 3 4 0 2
BITMAP
C0
A0
A0
A0
ENDCHAR
STARTCHAR U+2080
ENCODING 8320
SWIDTH 400 0
DWIDTH 4 0
BBX 3 4 0 0
BITMAP
40
A0
A0
40
ENDCHAR
STARTCHAR U+2081
ENCODING 8321
SWIDTH 400 0
DWIDTH 4 0
BBX 3 4 0 0
BITMAP
40
C0
40
E0
ENDCHAR
STARTCHAR U+2082
ENCODING 8322
SWIDTH 400 0
DWIDTH 4 0
BBX 3 4 0 0
BITMAP
C0
20
40
E0
ENDCHAR
STARTCHAR U+2083
ENCODING 8323
SWIDTH 400 0
DWIDTH 4 0
BBX 3 4 0 0
BITMAP
C0
20
60
C0
ENDCHAR
STARTCHAR U+2084
ENCODING 8324
SWIDTH 400 0
DWIDTH 4 0
BBX 3 4 0 0
BITMAP
40
80
E0
40
ENDCHAR
STARTCHAR U+2085
ENCODING 8325
SWIDTH 400 0
DWIDTH 4 0
BBX 3 4 0 0
BITMAP
E0
C0
20
C0
ENDCHAR
STARTCHAR U+2086
ENCODING 8326
SWIDTH 400 0
DWIDTH 4 0
BBX 3 4 0 0
BITMAP
60
C0
A0
60
ENDCHAR
STARTCHAR U+2087
ENCODING 8327
SWIDTH 400 0
DWIDTH 4 0
BBX 3 4 0 0
BITMAP
E0
20
40
40
ENDCHAR
STARTCHAR U+2088
ENCODING 8328
SWIDTH 400 0
DWIDTH 4 0
BBX 3 4 0 0
BITMAP
40
A0
E0
40
ENDCHAR
STARTCHAR U+2089
ENCODING 8329
SWIDTH 400 0
DWIDTH 4 0
BBX 3 4 0 0
BITMAP
60
A0
60
C0
ENDCHAR
STARTCHAR U+208A
ENCODING 8330
SWIDTH 400 0
DWIDTH 4 0
BBX 3 3 0 0
BITMAP
40
E0
40
ENDCHAR
STARTCHAR U+208B
ENCODING 8331
SWIDTH 400 0
DWIDTH 4 0
BBX 3 1 0 1
BITMAP
E0
ENDCHAR
STARTCHAR U+208C
ENCODING 8332
SWIDTH 400 0
DWIDTH 4 0
BBX 3 3 0 0
BITMAP
E0
00
E0
ENDCHAR
STARTCHAR U+208D
ENCODING 8333
SWIDTH 300 0
DWIDTH 3 0
BBX 2 4 0 0
BITMAP
40
80
80
40
ENDCHAR
STARTCHAR U+208E
ENCODING 8334
SWIDTH 300 0
DWIDTH 3 0
BBX 2 4 0 0
BITMAP
80
40
40
80
ENDCHAR
STARTCHAR U+20A7
ENCODING 8359
SWIDTH 600 0
DWIDTH 6 0
BBX 5 6 0 0
BITMAP
D0
B8
B0
D0
90
88
ENDCHAR
STARTCHAR U+2115
ENCODING 8469
SWIDTH 500 0
DWIDTH 5 0
BBX 4 6 0 0
BITMAP
90
D0
B0
D0
B0
90
ENDCHAR
STARTCHAR U+2116
ENCODING 8470
SWIDTH 1000 0
DWIDTH 10 0
BBX 9 6 0 0
BITMAP
9000
D000
B300
9480
9480
9300
ENDCHAR
STARTCHAR U+2117
ENCODING 8471
SWIDTH 700 0
DWIDTH 7 0
BBX 6 7 0 0
BITMAP
78
84
B4
B4
A4
84
78
ENDCHAR
STARTCHAR U+2120
ENCODING 8480
SWIDTH 800 0
DWIDTH 8 0
BBX 7 3 0 3
BITMAP
6A
4E
CA
ENDCHAR
STARTCHAR U+2121
ENCODING 8481
SWIDTH 1100 0
DWIDTH 11 0
BBX 10 3 0 3
BITMAP
EE80
4C80
4EC0
ENDCHAR
STARTCHAR U+2122
ENCODING 8482
SWIDTH 800 0
DWIDTH 8 0
BBX 7 3 0 3
BITMAP
EA
4E
4A
ENDCHAR
STARTCHAR U+2123
ENCODING 8483
SWIDTH 0 0
DWIDTH 0 0
BBX 0 0 0 0
BITMAP
ENDCHAR
STARTCHAR U+2150
ENCODING 8528
SWIDTH 700 0
DWIDTH 7 0
BBX 6 7 0 0
BITMAP
50
D0
40
5C
04
48
48
ENDCHAR
STARTCHAR U+2151
ENCODING 8529
SWIDTH 700 0
DWIDTH 7 0
BBX 6 7 0 0
BITMAP
50
D0
40
48
14
4C
58
ENDCHAR
STARTCHAR U+2153
ENCODING 8531
SWIDTH 700 0
DWIDTH 7 0
BBX 6 7 0 0
BITMAP
50
D0
40
5C
04
4C
58
ENDCHAR
STARTCHAR U+2154
ENCODING 8532
SWIDTH 700 0
DWIDTH 7 0
BBX 6 7 0 0
BITMAP
C8
28
40
EC
04
4C
58
ENDCHAR
STARTCHAR U+2155
ENCODING 8533
SWIDTH 700 0
DWIDTH 7 0
BBX 6 7 0 0
BITMAP
50
D0
40
5C
18
44
58
ENDCHAR
STARTCHAR U+2156
ENCODING 8534
SWIDTH 700 0
DWIDTH 7 0
BBX 6 7 0 0
BITMAP
C8
28
40
EC
08
44
58
ENDCHAR
STARTCHAR U+2157
ENCODING 8535
SWIDTH 700 0
DWIDTH 7 0
BBX 6 7 0 0
BITMAP
C8
28
60
CC
08
44
58
ENDCHAR
STARTCHAR U+2158
ENCODING 8536
SWIDTH 700 0
DWIDTH 7 0
BBX 6 7 0 0
BITMAP
48
88
E0
4C
08
44
58
ENDCHAR
STARTCHAR U+2159
ENCODING 8537
SWIDTH 700 0
DWIDTH 7 0
BBX 6 7 0 0
BITMAP
50
D0
40
4C
18
54
48
ENDCHAR
STARTCHAR U+215A
ENCODING 8538
SWIDTH 700 0
DWIDTH 7 0
BBX 6 7 0 0
BITMAP
D0
90
40
CC
18
54
48
ENDCHAR
STARTCHAR U+215B
ENCODING 8539
SWIDTH 700 0
DWIDTH 7 0
BBX 6 7 0 0
BITMAP
50
D0
48
54
08
54
48
ENDCHAR
STARTCHAR U+215C
ENCODING 8540
SWIDTH 700 0
DWIDTH 7 0
BBX 6 7 0 0
BITMAP
D0
50
C8
54
C8
14
48
ENDCHAR
STARTCHAR U+215D
ENCODING 8541
SWIDTH 700 0
DWIDTH 7 0
BBX 6 7 0 0
BITMAP
D0
90
48
D4
08
54
48
ENDCHAR
STARTCHAR U+215E
ENCODING 8542
SWIDTH 700 0
DWIDTH 7 0
BBX 6 7 0 0
BITMAP
D0
50
88
94
08
54
48
ENDCHAR
STARTCHAR U+215F
ENCODING 8543
SWIDTH 600 0
DWIDTH 6 0
BBX 5 7 0 0
BITMAP
48
C8
50
50
10
20
20
ENDCHAR
STARTCHAR U+2160
ENCODING 8544
SWIDTH 200 0
DWIDTH 2 0
BBX 1 6 0 0
BITMAP
80
80
80
80
80
80
ENDCHAR
STARTCHAR U+2161
ENCODING 8545
SWIDTH 400 0
DWIDTH 4 0
BBX 3 6 0 0
BITMAP
A0
A0
A0
A0
A0
A0
ENDCHAR
STARTCHAR U+2162
ENCODING 8546
SWIDTH 600 0
DWIDTH 6 0
BBX 5 6 0 0
BITMAP
A8
A8
A8
A8
A8
A8
ENDCHAR
STARTCHAR U+2163
ENCODING 8547
SWIDTH 600 0
DWIDTH 6 0
BBX 5 6 0 0
BITMAP
A8
A8
A8
A8
90
90
ENDCHAR
STARTCHAR U+2164
ENCODING 8548
SWIDTH 400 0
DWIDTH 4 0
BBX 3 6 0 0
BITMAP
A0
A0
A0
A0
40
40
ENDCHAR
STARTCHAR U+2165
ENCODING 8549
SWIDTH 600 0
DWIDTH 6 0
BBX 5 6 0 0
BITMAP
A8
A8
A8
A8
48
48
ENDCHAR
STARTCHAR U+2166
ENCODING 8550
SWIDTH 800 0
DWIDTH 8 0
BBX 7 6 0 0
BITMAP
AA
AA
AA
AA
4A
4A
ENDCHAR
STARTCHAR U+2167
ENCODING 8551
SWIDTH 1000 0
DWIDTH 10 0
BBX 9 6 0 0
BITMAP
AA80
AA80
AA80
AA80
4A80
4A80
ENDCHAR
STARTCHAR U+2168
ENCODING 8552
SWIDTH 600 0
DWIDTH 6 0
BBX 5 6 0 0
BITMAP
A8
A8
90
90
A8
A8
ENDCHAR
STARTCHAR U+2169
ENCODING 8553
SWIDTH 400 0
DWIDTH 4 0
BBX 3 6 0 0
BITMAP
A0
A0
40
40
A0
A0
ENDCHAR
STARTCHAR U+216A
ENCODING 8554
SWIDTH 600 0
DWIDTH 6 0
BBX 5 6 0 0
BITMAP
A8
A8
48
48
A8
A8
ENDCHAR
STARTCHAR U+216B
ENCODING 8555
SWIDTH 800 0
DWIDTH 8 0
BBX 7 6 0 0
BITMAP
AA
AA
4A
4A
AA
AA
ENDCHAR
STARTCHAR U+216C
ENCODING 8556
SWIDTH 500 0
DWIDTH 5 0
BBX 4 6 0 0
BITMAP
80
80
80
80
80
F0
ENDCHAR
STARTCHAR U+216D
ENCODING 8557
SWIDTH 500 0
DWIDTH 5 0
BBX 4 6 0 0
BITMAP
60
90
80
80
90
60
ENDCHAR
STARTCHAR U+216E
ENCODING 8558
SWIDTH 400 0
DWIDTH 4 0
BBX 4 6 0 0
BITMAP
E0
90
90
90
90
E0
ENDCHAR
STARTCHAR U+216F
ENCODING 8559
SWIDTH 600 0
DWIDTH 6 0
BBX 5 6 0 0
BITMAP
88
D8
A8
A8
88
88
ENDCHAR
STARTCHAR U+2170
ENCODING 8560
SWIDTH 200 0
DWIDTH 2 0
BBX 1 6 0 0
BITMAP
80
00
80
80
80
80
ENDCHAR
STARTCHAR U+2171
ENCODING 8561
SWIDTH 400 0
DWIDTH 4 0
BBX 3 6 0 0
BITMAP
A0
00
A0
A0
A0
A0
ENDCHAR
STARTCHAR U+2172
ENCODING 8562
SWIDTH 600 0
DWIDTH 6 0
BBX 5 6 0 0
BITMAP
A8
00
A8
A8
A8
A8
ENDCHAR
STARTCHAR U+2173
ENCODING 8563
SWIDTH 600 0
DWIDTH 6 0
BBX 5 6 0 0
BITMAP
80
00
A8
A8
A8
90
ENDCHAR
STARTCHAR U+2174
ENCODING 8564
SWIDTH 400 0
DWIDTH 4 0
BBX 3 4 0 0
BITMAP
A0
A0
A0
40
ENDCHAR
STARTCHAR U+2175
ENCODING 8565
SWIDTH 600 0
DWIDTH 6 0
BBX 5 6 0 0
BITMAP
08
00
A8
A8
A8
48
ENDCHAR
STARTCHAR U+2176
ENCODING 8566
SWIDTH 800 0
DWIDTH 8 0
BBX 7 6 0 0
BITMAP
0A
00
AA
AA
AA
4A
ENDCHAR
STARTCHAR U+2177
ENCODING 8567
SWIDTH 1000 0
DWIDTH 10 0
BBX 9 6 0 0
BITMAP
0A80
0000
AA80
AA80
AA80
4A80
ENDCHAR
STARTCHAR U+2178
ENCODING 8568
SWIDTH 600 0
DWIDTH 6 0
BBX 5 6 0 0
BITMAP
80
00
A8
90
90
A8
ENDCHAR
STARTCHAR U+2179
ENCODING 8569
SWIDTH 400 0
DWIDTH 4 0
BBX 3 4 0 0
BITMAP
A0
40
40
A0
ENDCHAR
STARTCHAR U+217A
ENCODING 8570
SWIDTH 600 0
DWIDTH 6 0
BBX 5 6 0 0
BITMAP
08
00
A8
48
48
A8
ENDCHAR
STARTCHAR U+217B
ENCODING 8571
SWIDTH 800 0
DWIDTH 8 0
BBX 7 6 0 0
BITMAP
0A
00
AA
4A
4A
AA
ENDCHAR
STARTCHAR U+217C
ENCODING 8572
SWIDTH 200 0
DWIDTH 2 0
BBX 1 6 0 0
BITMAP
80
80
80
80
80
80
ENDCHAR
STARTCHAR U+217D
ENCODING 8573
SWIDTH 500 0
DWIDTH 5 0
BBX 4 5 0 0
BITMAP
60
90
80
90
60
ENDCHAR
STARTCHAR U+217E
ENCODING 8574
SWIDTH 400 0
DWIDTH 4 0
BBX 4 6 0 0
BITMAP
10
10
70
90
90
70
ENDCHAR
STARTCHAR U+217F
ENCODING 8575
SWIDTH 600 0
DWIDTH 6 0
BBX 5 5 0 0
BITMAP
D0
A8
A8
88
88
ENDCHAR
STARTCHAR U+2190
ENCODING 8592
SWIDTH 600 0
DWIDTH 6 0
BBX 5 5 0 0
BITMAP
20
40
F8
40
20
ENDCHAR
STARTCHAR U+2191
ENCODING 8593
SWIDTH 600 0
DWIDTH 6 0
BBX 5 6 0 0
BITMAP
20
70
A8
20
20
20
ENDCHAR
STARTCHAR U+2192
ENCODING 8594
SWIDTH 600 0
DWIDTH 6 0
BBX 5 5 0 0
BITMAP
20
10
F8
10
20
ENDCHAR
STARTCHAR U+2193
ENCODING 8595
SWIDTH 600 0
DWIDTH 6 0
BBX 5 6 0 0
BITMAP
20
20
20
A8
70
20
ENDCHAR
STARTCHAR U+2194
ENCODING 8596
SWIDTH 800 0
DWIDTH 8 0
BBX 7 5 0 0
BITMAP
28
44
FE
44
28
ENDCHAR
STARTCHAR U+2195
ENCODING 8597
SWIDTH 600 0
DWIDTH 6 0
BBX 5 7 0 0
BITMAP
20
70
A8
20
A8
70
20
ENDCHAR
STARTCHAR U+2219
ENCODING 8729
SWIDTH 200 0
DWIDTH 2 0
BBX 1 2 0 2
BITMAP
80
80
ENDCHAR
STARTCHAR U+221A
ENCODING 8730
SWIDTH 600 0
DWIDTH 6 0
BBX 5 7 0 0
BITMAP
18
10
10
20
20
A0
40
ENDCHAR
STARTCHAR U+2248
ENCODING 8776
SWIDTH 600 0
DWIDTH 6 0
BBX 5 5 0 0
BITMAP
68
B0
00
68
B0
ENDCHAR
STARTCHAR U+2260
ENCODING 8800
SWIDTH 400 0
DWIDTH 4 0
BBX 3 5 0 0
BITMAP
20
E0
40
E0
80
ENDCHAR
STARTCHAR U+2261
ENCODING 8801
SWIDTH 500 0
DWIDTH 5 0
BBX 4 5 0 0
BITMAP
F0
00
F0
00
F0
ENDCHAR
STARTCHAR U+2262
ENCODING 8802
SWIDTH 500 0
DWIDTH 5 0
BBX 4 7 0 -1
BITMAP
10
F0
20
F0
40
F0
80
ENDCHAR
STARTCHAR U+2263
ENCODING 8803
SWIDTH 500 0
DWIDTH 5 0
BBX 4 7 0 -1
BITMAP
F0
00
F0
00
F0
00
F0
ENDCHAR
STARTCHAR U+2264
ENCODING 8804
SWIDTH 400 0
DWIDTH 4 0
BBX 3 7 0 0
BITMAP
20
40
80
40
20
00
E0
ENDCHAR
STARTCHAR U+2265
ENCODING 8805
SWIDTH 400 0
DWIDTH 4 0
BBX 3 7 0 0
BITMAP
80
40
20
40
80
00
E0
ENDCHAR
STARTCHAR U+2282
ENCODING 8834
SWIDTH 500 0
DWIDTH 5 0
BBX 4 4 0 1
BITMAP
70
80
80
70
ENDCHAR
STARTCHAR U+2283
ENCODING 8835
SWIDTH 500 0
DWIDTH 5 0
BBX 4 4 0 1
BITMAP
E0
10
10
E0
ENDCHAR
STARTCHAR U+2284
ENCODING 8836
SWIDTH 500 0
DWIDTH 5 0
BBX 4 6 0 0
BITMAP
10
70
A0
A0
70
40
ENDCHAR
STARTCHAR U+2285
ENCODING 8837
SWIDTH 500 0
DWIDTH 5 0
BBX 4 6 0 0
BITMAP
20
E0
50
50
E0
80
ENDCHAR
STARTCHAR U+2286
ENCODING 8838
SWIDTH 500 0
DWIDTH 5 0
BBX 4 6 0 0
BITMAP
70
80
80
70
00
F0
ENDCHAR
STARTCHAR U+2287
ENCODING 8839
SWIDTH 500 0
DWIDTH 5 0
BBX 4 6 0 0
BITMAP
E0
10
10
E0
00
F0
ENDCHAR
STARTCHAR U+2288
ENCODING 8840
SWIDTH 500 0
DWIDTH 5 0
BBX 4 8 0 -1
BITMAP
10
70
A0
A0
70
40
F0
80
ENDCHAR
STARTCHAR U+2289
ENCODING 8841
SWIDTH 500 0
DWIDTH 5 0
BBX 4 8 0 -1
BITMAP
10
E0
30
50
E0
40
F0
80
ENDCHAR
STARTCHAR U+228A
ENCODING 8842
SWIDTH 500 0
DWIDTH 5 0
BBX 4 7 0 -1
BITMAP
70
80
80
70
20
F0
40
ENDCHAR
STARTCHAR U+228B
ENCODING 8843
SWIDTH 500 0
DWIDTH 5 0
BBX 4 7 0 -1
BITMAP
E0
10
10
E0
20
F0
40
ENDCHAR
STARTCHAR U+22C0
ENCODING 8896
SWIDTH 600 0
DWIDTH 6 0
BBX 5 5 0 0
BITMAP
20
50
50
88
88
ENDCHAR
STARTCHAR U+22C1
ENCODING 8897
SWIDTH 600 0
DWIDTH 6 0
BBX 5 5 0 0
BITMAP
88
88
50
50
20
ENDCHAR
STARTCHAR U+22C2
ENCODING 8898
SWIDTH 600 0
DWIDTH 6 0
BBX 5 5 0 0
BITMAP
70
88
88
88
88
ENDCHAR
STARTCHAR U+22C3
ENCODING 8899
SWIDTH 600 0
DWIDTH 6 0
BBX 5 5 0 0
BITMAP
88
88
88
88
70
ENDCHAR
STARTCHAR U+2310
ENCODING 8976
SWIDTH 400 0
DWIDTH 4 0
BBX 3 2 0 2
BITMAP
E0
80
ENDCHAR
STARTCHAR U+2500
ENCODING 9472
SWIDTH 500 0
DWIDTH 5 0
BBX 5 1 0 3
BITMAP
F8
ENDCHAR
STARTCHAR U+2501
ENCODING 9473
SWIDTH 500 0
DWIDTH 5 0
BBX 5 2 0 2
BITMAP
F8
F8
ENDCHAR
STARTCHAR U+2502
ENCODING 9474
SWIDTH 500 0
DWIDTH 5 0
BBX 1 8 2 -1
BITMAP
80
80
80
80
80
80
80
80
ENDCHAR
STARTCHAR U+2503
ENCODING 9475
SWIDTH 500 0
DWIDTH 5 0
BBX 2 8 2 -1
BITMAP
C0
C0
C0
C0
C0
C0
C0
C0
ENDCHAR
STARTCHAR U+2504
ENCODING 9476
SWIDTH 500 0
DWIDTH 5 0
BBX 5 1 0 3
BITMAP
A8
ENDCHAR
STARTCHAR U+2505
ENCODING 9477
SWIDTH 500 0
DWIDTH 5 0
BBX 5 2 0 2
BITMAP
A8
A8
ENDCHAR
STARTCHAR U+2506
ENCODING 9478
SWIDTH 500 0
DWIDTH 5 0
BBX 1 8 2 -1
BITMAP
80
80
00
80
80
00
80
80
ENDCHAR
STARTCHAR U+2507
ENCODING 9479
SWIDTH 500 0
DWIDTH 5 0
BBX 2 8 2 -1
BITMAP
C0
C0
00
C0
C0
00
C0
C0
ENDCHAR
STARTCHAR U+2508
ENCODING 9480
SWIDTH 500 0
DWIDTH 5 0
BBX 5 1 0 3
BITMAP
A8
ENDCHAR
STARTCHAR U+2509
ENCODING 9481
SWIDTH 500 0
DWIDTH 5 0
BBX 5 2 0 2
BITMAP
A8
A8
ENDCHAR
STARTCHAR U+250A
ENCODING 9482
SWIDTH 500 0
DWIDTH 5 0
BBX 1 7 2 0
BITMAP
80
00
80
00
80
00
80
ENDCHAR
STARTCHAR U+250B
ENCODING 9483
SWIDTH 500 0
DWIDTH 5 0
BBX 2 7 2 0
BITMAP
C0
00
C0
00
C0
00
C0
ENDCHAR
STARTCHAR U+250C
ENCODING 9484
SWIDTH 500 0
DWIDTH 5 0
BBX 3 5 2 -1
BITMAP
E0
80
80
80
80
ENDCHAR
STARTCHAR U+250D
ENCODING 9485
SWIDTH 500 0
DWIDTH 5 0
BBX 3 5 2 -1
BITMAP
E0
E0
80
80
80
ENDCHAR
STARTCHAR U+250E
ENCODING 9486
SWIDTH 500 0
DWIDTH 5 0
BBX 3 5 2 -1
BITMAP
E0
C0
C0
C0
C0
ENDCHAR
STARTCHAR U+250F
ENCODING 9487
SWIDTH 500 0
DWIDTH 5 0
BBX 3 5 2 -1
BITMAP
E0
E0
C0
C0
C0
ENDCHAR
STARTCHAR U+2510
ENCODING 9488
SWIDTH 500 0
DWIDTH 5 0
BBX 3 5 0 -1
BITMAP
E0
20
20
20
20
ENDCHAR
STARTCHAR U+2511
ENCODING 9489
SWIDTH 500 0
DWIDTH 5 0
BBX 3 5 0 -1
BITMAP
E0
E0
20
20
20
ENDCHAR
STARTCHAR U+2512
ENCODING 9490
SWIDTH 500 0
DWIDTH 5 0
BBX 4 5 0 -1
BITMAP
F0
30
30
30
30
ENDCHAR
STARTCHAR U+2513
ENCODING 9491
SWIDTH 500 0
DWIDTH 5 0
BBX 4 5 0 -1
BITMAP
F0
F0
30
30
30
ENDCHAR
STARTCHAR U+2514
ENCODING 9492
SWIDTH 500 0
DWIDTH 5 0
BBX 3 4 2 3
BITMAP
80
80
80
E0
ENDCHAR
STARTCHAR U+2515
ENCODING 9493
SWIDTH 500 0
DWIDTH 5 0
BBX 3 5 2 2
BITMAP
80
80
80
E0
E0
ENDCHAR
STARTCHAR U+2516
ENCODING 9494
SWIDTH 500 0
DWIDTH 5 0
BBX 3 4 2 3
BITMAP
C0
C0
C0
E0
ENDCHAR
STARTCHAR U+2517
ENCODING 9495
SWIDTH 500 0
DWIDTH 5 0
BBX 3 5 2 2
BITMAP
C0
C0
C0
E0
E0
ENDCHAR
STARTCHAR U+2518
ENCODING 9496
SWIDTH 500 0
DWIDTH 5 0
BBX 3 4 0 3
BITMAP
20
20
20
E0
ENDCHAR
STARTCHAR U+2519
ENCODING 9497
SWIDTH 500 0
DWIDTH 5 0
BBX 3 5 0 2
BITMAP
20
20
20
E0
E0
ENDCHAR
STARTCHAR U+251A
ENCODING 9498
SWIDTH 500 0
DWIDTH 5 0
BBX 4 4 0 3
BITMAP
30
30
30
F0
ENDCHAR
STARTCHAR U+251B
ENCODING 9499
SWIDTH 500 0
DWIDTH 5 0
BBX 4 5 0 2
BITMAP
30
30
30
F0
F0
ENDCHAR
STARTCHAR U+251C
ENCODING 9500
SWIDTH 500 0
DWIDTH 5 0
BBX 3 8 2 -1
BITMAP
80
80
80
E0
80
80
80
80
ENDCHAR
STARTCHAR U+251D
ENCODING 9501
SWIDTH 500 0
DWIDTH 5 0
BBX 3 8 2 -1
BITMAP
80
80
80
E0
E0
80
80
80
ENDCHAR
STARTCHAR U+251E
ENCODING 9502
SWIDTH 500 0
DWIDTH 5 0
BBX 3 8 2 -1
BITMAP
C0
C0
C0
E0
80
80
80
80
ENDCHAR
STARTCHAR U+251F
ENCODING 9503
SWIDTH 500 0
DWIDTH 5 0
BBX 3 8 2 -1
BITMAP
80
80
80
E0
C0
C0
C0
C0
ENDCHAR
STARTCHAR U+2520
ENCODING 9504
SWIDTH 500 0
DWIDTH 5 0
BBX 3 8 2 -1
BITMAP
C0
C0
C0
E0
C0
C0
C0
C0
ENDCHAR
STARTCHAR U+2521
ENCODING 9505
SWIDTH 500 0
DWIDTH 5 0
BBX 3 8 2 -1
BITMAP
C0
C0
C0
E0
E0
80
80
80
ENDCHAR
STARTCHAR U+2522
ENCODING 9506
SWIDTH 500 0
DWIDTH 5 0
BBX 3 8 2 -1
BITMAP
80
80
80
E0
E0
C0
C0
C0
ENDCHAR
STARTCHAR U+2523
ENCODING 9507
SWIDTH 500 0
DWIDTH 5 0
BBX 3 8 2 -1
BITMAP
C0
C0
C0
E0
E0
C0
C0
C0
ENDCHAR
STARTCHAR U+2524
ENCODING 9508
SWIDTH 500 0
DWIDTH 5 0
BBX 3 8 0 -1
BITMAP
20
20
20
E0
20
20
20
20
ENDCHAR
STARTCHAR U+2525
ENCODING 9509
SWIDTH 500 0
DWIDTH 5 0
BBX 3 8 0 -1
BITMAP
20
20
20
E0
E0
20
20
20
ENDCHAR
STARTCHAR U+2526
ENCODING 9510
SWIDTH 500 0
DWIDTH 5 0
BBX 4 8 0 -1
BITMAP
30
30
30
F0
20
20
20
20
ENDCHAR
STARTCHAR U+2527
ENCODING 9511
SWIDTH 500 0
DWIDTH 5 0
BBX 4 8 0 -1
BITMAP
20
20
20
F0
30
30
30
30
ENDCHAR
STARTCHAR U+2528
ENCODING 9512
SWIDTH 500 0
DWIDTH 5 0
BBX 4 8 0 -1
BITMAP
30
30
30
F0
30
30
30
30
ENDCHAR
STARTCHAR U+2529
ENCODING 9513
SWIDTH 500 0
DWIDTH 5 0
BBX 4 8 0 -1
BITMAP
30
30
30
F0
F0
20
20
20
ENDCHAR
STARTCHAR U+252A
ENCODING 9514
SWIDTH 500 0
DWIDTH 5 0
BBX 4 8 0 -1
BITMAP
20
20
20
F0
F0
30
30
30
ENDCHAR
STARTCHAR U+252B
ENCODING 9515
SWIDTH 500 0
DWIDTH 5 0
BBX 4 8 0 -1
BITMAP
30
30
30
F0
F0
30
30
30
ENDCHAR
STARTCHAR U+252C
ENCODING 9516
SWIDTH 500 0
DWIDTH 5 0
BBX 5 5 0 -1
BITMAP
F8
20
20
20
20
ENDCHAR
STARTCHAR U+252D
ENCODING 9517
SWIDTH 500 0
DWIDTH 5 0
BBX 5 5 0 -1
BITMAP
F8
E0
20
20
20
ENDCHAR
STARTCHAR U+252E
ENCODING 9518
SWIDTH 500 0
DWIDTH 5 0
BBX 5 5 0 -1
BITMAP
F8
38
20
20
20
ENDCHAR
STARTCHAR U+252F
ENCODING 9519
SWIDTH 500 0
DWIDTH 5 0
BBX 5 5 0 -1
BITMAP
F8
F8
20
20
20
ENDCHAR
STARTCHAR U+2530
ENCODING 9520
SWIDTH 500 0
DWIDTH 5 0
BBX 5 5 0 -1
BITMAP
F8
30
30
30
30
ENDCHAR
STARTCHAR U+2531
ENCODING 9521
SWIDTH 500 0
DWIDTH 5 0
BBX 5 5 0 -1
BITMAP
F8
F0
30
30
30
ENDCHAR
STARTCHAR U+2532
ENCODING 9522
SWIDTH 500 0
DWIDTH 5 0
BBX 5 5 0 -1
BITMAP
F8
38
30
30
30
ENDCHAR
STARTCHAR U+2533
ENCODING 9523
SWIDTH 500 0
DWIDTH 5 0
BBX 5 5 0 -1
BITMAP
F8
F8
30
30
30
ENDCHAR
STARTCHAR U+2534
ENCODING 9524
SWIDTH 500 0
DWIDTH 5 0
BBX 5 4 0 3
BITMAP
20
20
20
F8
ENDCHAR
STARTCHAR U+2535
ENCODING 9525
SWIDTH 500 0
DWIDTH 5 0
BBX 5 5 0 2
BITMAP
20
20
20
F8
E0
ENDCHAR
STARTCHAR U+2536
ENCODING 9526
SWIDTH 500 0
DWIDTH 5 0
BBX 5 5 0 2
BITMAP
20
20
20
F8
38
ENDCHAR
STARTCHAR U+2537
ENCODING 9527
SWIDTH 500 0
DWIDTH 5 0
BBX 5 5 0 2
BITMAP
20
20
20
F8
F8
ENDCHAR
STARTCHAR U+2538
ENCODING 9528
SWIDTH 500 0
DWIDTH 5 0
BBX 5 4 0 3
BITMAP
30
30
30
F8
ENDCHAR
STARTCHAR U+2539
ENCODING 9529
SWIDTH 500 0
DWIDTH 5 0
BBX 5 5 0 2
BITMAP
30
30
30
F8
F0
ENDCHAR
STARTCHAR U+253A
ENCODING 9530
SWIDTH 500 0
DWIDTH 5 0
BBX 5 5 0 2
BITMAP
30
30
30
F8
38
ENDCHAR
STARTCHAR U+253B
ENCODING 9531
SWIDTH 500 0
DWIDTH 5 0
BBX 5 5 0 2
BITMAP
30
30
30
F8
F8
ENDCHAR
STARTCHAR U+253C
ENCODING 9532
SWIDTH 500 0
DWIDTH 5 0
BBX 5 8 0 -1
BITMAP
20
20
20
F8
20
20
20
20
ENDCHAR
STARTCHAR U+253D
ENCODING 9533
SWIDTH 500 0
DWIDTH 5 0
BBX 5 8 0 -1
BITMAP
20
20
20
F8
E0
20
20
20
ENDCHAR
STARTCHAR U+253E
ENCODING 9534
SWIDTH 500 0
DWIDTH 5 0
BBX 5 8 0 -1
BITMAP
20
20
20
F8
38
20
20
20
ENDCHAR
STARTCHAR U+253F
ENCODING 9535
SWIDTH 500 0
DWIDTH 5 0
BBX 5 8 0 -1
BITMAP
20
20
20
F8
F8
20
20
20
ENDCHAR
STARTCHAR U+2540
ENCODING 9536
SWIDTH 500 0
DWIDTH 5 0
BBX 5 8 0 -1
BITMAP
30
30
30
F8
20
20
20
20
ENDCHAR
STARTCHAR U+2541
ENCODING 9537
SWIDTH 500 0
DWIDTH 5 0
BBX 5 8 0 -1
BITMAP
20
20
20
F8
30
30
30
30
ENDCHAR
STARTCHAR U+2542
ENCODING 9538
SWIDTH 500 0
DWIDTH 5 0
BBX 5 8 0 -1
BITMAP
30
30
30
F8
30
30
30
30
ENDCHAR
STARTCHAR U+2543
ENCODING 9539
SWIDTH 500 0
DWIDTH 5 0
BBX 5 8 0 -1
BITMAP
30
30
30
F8
F0
20
20
20
ENDCHAR
STARTCHAR U+2544
ENCODING 9540
SWIDTH 500 0
DWIDTH 5 0
BBX 5 8 0 -1
BITMAP
30
30
30
F8
38
20
20
20
ENDCHAR
STARTCHAR U+2545
ENCODING 9541
SWIDTH 500 0
DWIDTH 5 0
BBX 5 8 0 -1
BITMAP
20
20
20
F8
F0
30
30
30
ENDCHAR
STARTCHAR U+2546
ENCODING 9542
SWIDTH 500 0
DWIDTH 5 0
BBX 5 8 0 -1
BITMAP
20
20
20
F8
38
30
30
30
ENDCHAR
STARTCHAR U+2547
ENCODING 9543
SWIDTH 500 0
DWIDTH 5 0
BBX 5 8 0 -1
BITMAP
30
30
30
F8
F8
20
20
20
ENDCHAR
STARTCHAR U+2548
ENCODING 9544
SWIDTH 500 0
DWIDTH 5 0
BBX 5 8 0 -1
BITMAP
20
20
20
F8
F8
30
30
30
ENDCHAR
STARTCHAR U+2549
ENCODING 9545
SWIDTH 500 0
DWIDTH 5 0
BBX 5 8 0 -1
BITMAP
30
30
30
F8
F0
30
30
30
ENDCHAR
STARTCHAR U+254A
ENCODING 9546
SWIDTH 500 0
DWIDTH 5 0
BBX 5 8 0 -1
BITMAP
30
30
30
F8
38
30
30
30
ENDCHAR
STARTCHAR U+254B
ENCODING 9547
SWIDTH 500 0
DWIDTH 5 0
BBX 5 8 0 -1
BITMAP
30
30
30
F8
F8
30
30
30
ENDCHAR
STARTCHAR U+254C
ENCODING 9548
SWIDTH 500 0
DWIDTH 5 0
BBX 5 1 0 3
BITMAP
D8
ENDCHAR
STARTCHAR U+254D
ENCODING 9549
SWIDTH 500 0
DWIDTH 5 0
BBX 5 2 0 2
BITMAP
D8
D8
ENDCHAR
STARTCHAR U+254E
ENCODING 9550
SWIDTH 500 0
DWIDTH 5 0
BBX 1 7 2 0
BITMAP
80
80
80
00
80
80
80
ENDCHAR
STARTCHAR U+254F
ENCODING 9551
SWIDTH 500 0
DWIDTH 5 0
BBX 2 7 2 0
BITMAP
C0
C0
C0
00
C0
C0
C0
ENDCHAR
STARTCHAR U+2550
ENCODING 9552
SWIDTH 500 0
DWIDTH 5 0
BBX 5 3 0 2
BITMAP
F8
00
F8
ENDCHAR
STARTCHAR U+2551
ENCODING 9553
SWIDTH 500 0
DWIDTH 5 0
BBX 3 8 1 -1
BITMAP
A0
A0
A0
A0
A0
A0
A0
A0
ENDCHAR
STARTCHAR U+2552
ENCODING 9554
SWIDTH 500 0
DWIDTH 5 0
BBX 3 6 2 -1
BITMAP
E0
80
E0
80
80
80
ENDCHAR
STARTCHAR U+2553
ENCODING 9555
SWIDTH 500 0
DWIDTH 5 0
BBX 4 5 1 -1
BITMAP
F0
A0
A0
A0
A0
ENDCHAR
STARTCHAR U+2554
ENCODING 9556
SWIDTH 500 0
DWIDTH 5 0
BBX 4 6 1 -1
BITMAP
F0
80
B0
A0
A0
A0
ENDCHAR
STARTCHAR U+2555
ENCODING 9557
SWIDTH 500 0
DWIDTH 5 0
BBX 3 6 0 -1
BITMAP
E0
20
E0
20
20
20
ENDCHAR
STARTCHAR U+2556
ENCODING 9558
SWIDTH 500 0
DWIDTH 5 0
BBX 4 5 0 -1
BITMAP
F0
50
50
50
50
ENDCHAR
STARTCHAR U+2557
ENCODING 9559
SWIDTH 500 0
DWIDTH 5 0
BBX 4 6 0 -1
BITMAP
F0
10
D0
50
50
50
ENDCHAR
STARTCHAR U+2558
ENCODING 9560
SWIDTH 500 0
DWIDTH 5 0
BBX 3 5 2 2
BITMAP
80
80
E0
80
E0
ENDCHAR
STARTCHAR U+2559
ENCODING 9561
SWIDTH 500 0
DWIDTH 5 0
BBX 4 4 1 3
BITMAP
A0
A0
A0
F0
ENDCHAR
STARTCHAR U+255A
ENCODING 9562
SWIDTH 500 0
DWIDTH 5 0
BBX 4 5 1 2
BITMAP
A0
A0
B0
80
F0
ENDCHAR
STARTCHAR U+255B
ENCODING 9563
SWIDTH 500 0
DWIDTH 5 0
BBX 3 5 0 2
BITMAP
20
20
E0
20
E0
ENDCHAR
STARTCHAR U+255C
ENCODING 9564
SWIDTH 500 0
DWIDTH 5 0
BBX 4 4 0 3
BITMAP
50
50
50
F0
ENDCHAR
STARTCHAR U+255D
ENCODING 9565
SWIDTH 500 0
DWIDTH 5 0
BBX 4 5 0 2
BITMAP
50
50
D0
10
F0
ENDCHAR
STARTCHAR U+255E
ENCODING 9566
SWIDTH 500 0
DWIDTH 5 0
BBX 3 8 2 -1
BITMAP
80
80
E0
80
E0
80
80
80
ENDCHAR
STARTCHAR U+255F
ENCODING 9567
SWIDTH 500 0
DWIDTH 5 0
BBX 4 8 1 -1
BITMAP
A0
A0
A0
B0
A0
A0
A0
A0
ENDCHAR
STARTCHAR U+2560
ENCODING 9568
SWIDTH 500 0
DWIDTH 5 0
BBX 4 8 1 -1
BITMAP
A0
A0
B0
80
B0
A0
A0
A0
ENDCHAR
STARTCHAR U+2561
ENCODING 9569
SWIDTH 500 0
DWIDTH 5 0
BBX 3 8 0 -1
BITMAP
20
20
E0
20
E0
20
20
20
ENDCHAR
STARTCHAR U+2562
ENCODING 9570
SWIDTH 500 0
DWIDTH 5 0
BBX 4 8 0 -1
BITMAP
50
50
50
D0
50
50
50
50
ENDCHAR
STARTCHAR U+2563
ENCODING 9571
SWIDTH 500 0
DWIDTH 5 0
BBX 4 8 0 -1
BITMAP
50
50
D0
10
D0
50
50
50
ENDCHAR
STARTCHAR U+2564
ENCODING 9572
SWIDTH 500 0
DWIDTH 5 0
BBX 5 6 0 -1
BITMAP
F8
00
F8
20
20
20
ENDCHAR
STARTCHAR U+2565
ENCODING 9573
SWIDTH 500 0
DWIDTH 5 0
BBX 5 5 0 -1
BITMAP
F8
50
50
50
50
ENDCHAR
STARTCHAR U+2566
ENCODING 9574
SWIDTH 500 0
DWIDTH 5 0
BBX 5 6 0 -1
BITMAP
F8
00
D8
50
50
50
ENDCHAR
STARTCHAR U+2567
ENCODING 9575
SWIDTH 500 0
DWIDTH 5 0
BBX 5 5 0 2
BITMAP
20
20
F8
00
F8
ENDCHAR
STARTCHAR U+2568
ENCODING 9576
SWIDTH 500 0
DWIDTH 5 0
BBX 5 4 0 3
BITMAP
50
50
50
F8
ENDCHAR
STARTCHAR U+2569
ENCODING 9577
SWIDTH 500 0
DWIDTH 5 0
BBX 5 5 0 2
BITMAP
50
50
D8
00
F8
ENDCHAR
STARTCHAR U+256A
ENCODING 9578
SWIDTH 500 0
DWIDTH 5 0
BBX 5 8 0 -1
BITMAP
20
20
F8
20
F8
20
20
20
ENDCHAR
STARTCHAR U+256B
ENCODING 9579
SWIDTH 500 0
DWIDTH 5 0
BBX 5 8 0 -1
BITMAP
50
50
50
D8
50
50
50
50
ENDCHAR
STARTCHAR U+256C
ENCODING 9580
SWIDTH 500 0
DWIDTH 5 0
BBX 5 8 0 -1
BITMAP
50
50
D8
00
D8
50
50
50
ENDCHAR
STARTCHAR U+256D
ENCODING 9581
SWIDTH 500 0
DWIDTH 5 0
BBX 3 5 2 -1
BITMAP
60
80
80
80
80
ENDCHAR
STARTCHAR U+256E
ENCODING 9582
SWIDTH 500 0
DWIDTH 5 0
BBX 3 5 0 -1
BITMAP
C0
20
20
20
20
ENDCHAR
STARTCHAR U+256F
ENCODING 9583
SWIDTH 500 0
DWIDTH 5 0
BBX 3 4 0 3
BITMAP
20
20
20
C0
ENDCHAR
STARTCHAR U+2570
ENCODING 9584
SWIDTH 500 0
DWIDTH 5 0
BBX 3 4 2 3
BITMAP
80
80
80
60
ENDCHAR
STARTCHAR U+2571
ENCODING 9585
SWIDTH 500 0
DWIDTH 5 0
BBX 5 8 0 -1
BITMAP
08
08
10
20
20
40
80
80
ENDCHAR
STARTCHAR U+2572
ENCODING 9586
SWIDTH 500 0
DWIDTH 5 0
BBX 5 8 0 -1
BITMAP
80
80
40
20
20
10
08
08
ENDCHAR
STARTCHAR U+2573
ENCODING 9587
SWIDTH 500 0
DWIDTH 5 0
BBX 5 8 0 -1
BITMAP
88
88
50
20
20
50
88
88
ENDCHAR
STARTCHAR U+2574
ENCODING 9588
SWIDTH 500 0
DWIDTH 5 0
BBX 3 1 0 3
BITMAP
E0
ENDCHAR
STARTCHAR U+2575
ENCODING 9589
SWIDTH 500 0
DWIDTH 5 0
BBX 1 4 2 3
BITMAP
80
80
80
80
ENDCHAR
STARTCHAR U+2576
ENCODING 9590
SWIDTH 500 0
DWIDTH 5 0
BBX 3 1 2 3
BITMAP
E0
ENDCHAR
STARTCHAR U+2577
ENCODING 9591
SWIDTH 500 0
DWIDTH 5 0
BBX 1 5 2 -1
BITMAP
80
80
80
80
80
ENDCHAR
STARTCHAR U+2578
ENCODING 9592
SWIDTH 500 0
DWIDTH 5 0
BBX 4 2 0 2
BITMAP
F0
F0
ENDCHAR
STARTCHAR U+2579
ENCODING 9593
SWIDTH 500 0
DWIDTH 5 0
BBX 2 5 2 2
BITMAP
C0
C0
C0
C0
C0
ENDCHAR
STARTCHAR U+257A
ENCODING 9594
SWIDTH 500 0
DWIDTH 5 0
BBX 3 2 2 2
BITMAP
E0
E0
ENDCHAR
STARTCHAR U+257B
ENCODING 9595
SWIDTH 500 0
DWIDTH 5 0
BBX 2 5 2 -1
BITMAP
C0
C0
C0
C0
C0
ENDCHAR
STARTCHAR U+257C
ENCODING 9596
SWIDTH 500 0
DWIDTH 5 0
BBX 5 2 0 2
BITMAP
F8
38
ENDCHAR
STARTCHAR U+257D
ENCODING 9597
SWIDTH 500 0
DWIDTH 5 0
BBX 2 8 2 -1
BITMAP
80
80
80
C0
C0
C0
C0
C0
ENDCHAR
STARTCHAR U+257E
ENCODING 9598
SWIDTH 500 0
DWIDTH 5 0
BBX 5 2 0 2
BITMAP
F8
E0
ENDCHAR
STARTCHAR U+257F
ENCODING 9599
SWIDTH 500 0
DWIDTH 5 0
BBX 2 8 2 -1
BITMAP
C0
C0
C0
C0
C0
80
80
80
ENDCHAR
STARTCHAR U+2580
ENCODING 9600
SWIDTH 500 0
DWIDTH 5 0
BBX 5 4 0 3
BITMAP
F8
F8
F8
F8
ENDCHAR
STARTCHAR U+2581
ENCODING 9601
SWIDTH 500 0
DWIDTH 5 0
BBX 5 1 0 -1
BITMAP
F8
ENDCHAR
STARTCHAR U+2582
ENCODING 9602
SWIDTH 500 0
DWIDTH 5 0
BBX 5 2 0 -1
BITMAP
F8
F8
ENDCHAR
STARTCHAR U+2583
ENCODING 9603
SWIDTH 500 0
DWIDTH 5 0
BBX 5 3 0 -1
BITMAP
F8
F8
F8
ENDCHAR
STARTCHAR U+2584
ENCODING 9604
SWIDTH 500 0
DWIDTH 5 0
BBX 5 4 0 -1
BITMAP
F8
F8
F8
F8
ENDCHAR
STARTCHAR U+2585
ENCODING 9605
SWIDTH 500 0
DWIDTH 5 0
BBX 5 5 0 -1
BITMAP
F8
F8
F8
F8
F8
ENDCHAR
STARTCHAR U+2586
ENCODING 9606
SWIDTH 500 0
DWIDTH 5 0
BBX 5 6 0 -1
BITMAP
F8
F8
F8
F8
F8
F8
ENDCHAR
STARTCHAR U+2587
ENCODING 9607
SWIDTH 500 0
DWIDTH 5 0
BBX 5 7 0 -1
BITMAP
F8
F8
F8
F8
F8
F8
F8
ENDCHAR
STARTCHAR U+2588
ENCODING 9608
SWIDTH 500 0
DWIDTH 5 0
BBX 5 8 0 -1
BITMAP
F8
F8
F8
F8
F8
F8
F8
F8
ENDCHAR
STARTCHAR U+2589
ENCODING 9609
SWIDTH 500 0
DWIDTH 5 0
BBX 5 8 0 -1
BITMAP
F8
F8
F8
F8
F8
F8
F8
F8
ENDCHAR
STARTCHAR U+258A
ENCODING 9610
SWIDTH 500 0
DWIDTH 5 0
BBX 4 8 0 -1
BITMAP
F0
F0
F0
F0
F0
F0
F0
F0
ENDCHAR
STARTCHAR U+258B
ENCODING 9611
SWIDTH 500 0
DWIDTH 5 0
BBX 3 8 0 -1
BITMAP
E0
E0
E0
E0
E0
E0
E0
E0
ENDCHAR
STARTCHAR U+258C
ENCODING 9612
SWIDTH 500 0
DWIDTH 5 0
BBX 3 8 0 -1
BITMAP
E0
E0
E0
E0
E0
E0
E0
E0
ENDCHAR
STARTCHAR U+258D
ENCODING 9613
SWIDTH 500 0
DWIDTH 5 0
BBX 2 8 0 -1
BITMAP
C0
C0
C0
C0
C0
C0
C0
C0
ENDCHAR
STARTCHAR U+258E
ENCODING 9614
SWIDTH 500 0
DWIDTH 5 0
BBX 2 8 0 -1
BITMAP
C0
C0
C0
C0
C0
C0
C0
C0
ENDCHAR
STARTCHAR U+258F
ENCODING 9615
SWIDTH 500 0
DWIDTH 5 0
BBX 1 8 0 -1
BITMAP
80
80
80
80
80
80
80
80
ENDCHAR
STARTCHAR U+2590
ENCODING 9616
SWIDTH 500 0
DWIDTH 5 0
BBX 2 8 3 -1
BITMAP
C0
C0
C0
C0
C0
C0
C0
C0
ENDCHAR
STARTCHAR U+2591
ENCODING 9617
SWIDTH 500 0
DWIDTH 5 0
BBX 4 8 0 -1
BITMAP
A0
10
A0
10
A0
10
A0
10
ENDCHAR
STARTCHAR U+2592
ENCODING 9618
SWIDTH 500 0
DWIDTH 5 0
BBX 5 8 0 -1
BITMAP
A8
50
A8
50
A8
50
A8
50
ENDCHAR
STARTCHAR U+2593
ENCODING 9619
SWIDTH 500 0
DWIDTH 5 0
BBX 5 8 0 -1
BITMAP
58
E8
58
E8
58
E8
58
E8
ENDCHAR
STARTCHAR U+2594
ENCODING 9620
SWIDTH 500 0
DWIDTH 5 0
BBX 5 1 0 6
BITMAP
F8
ENDCHAR
STARTCHAR U+2595
ENCODING 9621
SWIDTH 500 0
DWIDTH 5 0
BBX 1 8 4 -1
BITMAP
80
80
80
80
80
80
80
80
ENDCHAR
STARTCHAR U+2596
ENCODING 9622
SWIDTH 500 0
DWIDTH 5 0
BBX 3 4 0 -1
BITMAP
E0
E0
E0
E0
ENDCHAR
STARTCHAR U+2597
ENCODING 9623
SWIDTH 500 0
DWIDTH 5 0
BBX 2 4 3 -1
BITMAP
C0
C0
C0
C0
ENDCHAR
STARTCHAR U+2598
ENCODING 9624
SWIDTH 500 0
DWIDTH 5 0
BBX 3 4 0 3
BITMAP
E0
E0
E0
E0
ENDCHAR
STARTCHAR U+2599
ENCODING 9625
SWIDTH 500 0
DWIDTH 5 0
BBX 5 8 0 -1
BITMAP
E0
E0
E0
E0
F8
F8
F8
F8
ENDCHAR
STARTCHAR U+259A
ENCODING 9626
SWIDTH 500 0
DWIDTH 5 0
BBX 5 8 0 -1
BITMAP
E0
E0
E0
E0
18
18
18
18
ENDCHAR
STARTCHAR U+259B
ENCODING 9627
SWIDTH 500 0
DWIDTH 5 0
BBX 5 8 0 -1
BITMAP
F8
F8
F8
F8
E0
E0
E0
E0
ENDCHAR
STARTCHAR U+259C
ENCODING 9628
SWIDTH 500 0
DWIDTH 5 0
BBX 5 8 0 -1
BITMAP
F8
F8
F8
F8
18
18
18
18
ENDCHAR
STARTCHAR U+259D
ENCODING 9629
SWIDTH 500 0
DWIDTH 5 0
BBX 2 4 3 3
BITMAP
C0
C0
C0
C0
ENDCHAR
STARTCHAR U+259E
ENCODING 9630
SWIDTH 500 0
DWIDTH 5 0
BBX 5 8 0 -1
BITMAP
18
18
18
18
E0
E0
E0
E0
ENDCHAR
STARTCHAR U+259F
ENCODING 9631
SWIDTH 500 0
DWIDTH 5 0
BBX 5 8 0 -1
BITMAP
18
18
18
18
F8
F8
F8
F8
ENDCHAR
STARTCHAR U+25A0
ENCODING 9632
SWIDTH 600 0
DWIDTH 6 0
BBX 5 5 0 1
BITMAP
F8
F8
F8
F8
F8
ENDCHAR
STARTCHAR U+25A1
ENCODING 9633
SWIDTH 600 0
DWIDTH 6 0
BBX 5 5 0 1
BITMAP
F8
88
88
88
F8
ENDCHAR
STARTCHAR U+25A2
ENCODING 9634
SWIDTH 600 0
DWIDTH 6 0
BBX 5 5 0 1
BITMAP
70
88
88
88
70
ENDCHAR
STARTCHAR U+25A3
ENCODING 9635
SWIDTH 600 0
DWIDTH 6 0
BBX 5 5 0 1
BITMAP
F8
88
B8
B8
F8
ENDCHAR
STARTCHAR U+25A4
ENCODING 9636
SWIDTH 600 0
DWIDTH 6 0
BBX 5 5 0 1
BITMAP
F8
88
F8
88
F8
ENDCHAR
STARTCHAR U+25A5
ENCODING 9637
SWIDTH 600 0
DWIDTH 6 0
BBX 5 5 0 1
BITMAP
F8
A8
A8
A8
F8
ENDCHAR
STARTCHAR U+25A6
ENCODING 9638
SWIDTH 600 0
DWIDTH 6 0
BBX 5 5 0 1
BITMAP
F8
A8
F8
A8
F8
ENDCHAR
STARTCHAR U+25A7
ENCODING 9639
SWIDTH 600 0
DWIDTH 6 0
BBX 5 5 0 1
BITMAP
F8
C8
A8
98
F8
ENDCHAR
STARTCHAR U+25A8
ENCODING 9640
SWIDTH 600 0
DWIDTH 6 0
BBX 5 5 0 1
BITMAP
F8
98
A8
C8
F8
ENDCHAR
STARTCHAR U+25A9
ENCODING 9641
SWIDTH 600 0
DWIDTH 6 0
BBX 5 5 0 1
BITMAP
F8
D8
A8
D8
F8
ENDCHAR
STARTCHAR U+25AA
ENCODING 9642
SWIDTH 400 0
DWIDTH 4 0
BBX 3 3 0 2
BITMAP
E0
E0
E0
ENDCHAR
STARTCHAR U+25AB
ENCODING 9643
SWIDTH 400 0
DWIDTH 4 0
BBX 3 3 0 2
BITMAP
E0
A0
E0
ENDCHAR
STARTCHAR U+25AC
ENCODING 9644
SWIDTH 600 0
DWIDTH 6 0
BBX 5 3 0 2
BITMAP
F8
F8
F8
ENDCHAR
STARTCHAR U+25AD
ENCODING 9645
SWIDTH 600 0
DWIDTH 6 0
BBX 5 3 0 2
BITMAP
F8
88
F8
ENDCHAR
STARTCHAR U+25AE
ENCODING 9646
SWIDTH 400 0
DWIDTH 4 0
BBX 3 5 0 1
BITMAP
E0
E0
E0
E0
E0
ENDCHAR
STARTCHAR U+25AF
ENCODING 9647
SWIDTH 400 0
DWIDTH 4 0
BBX 3 5 0 1
BITMAP
E0
A0
A0
A0
E0
ENDCHAR
STARTCHAR U+25B0
ENCODING 9648
SWIDTH 700 0
DWIDTH 7 0
BBX 6 3 0 2
BITMAP
3C
78
F0
ENDCHAR
STARTCHAR U+25B1
ENCODING 9649
SWIDTH 700 0
DWIDTH 7 0
BBX 6 3 0 2
BITMAP
3C
48
F0
ENDCHAR
STARTCHAR U+25B2
ENCODING 9650
SWIDTH 600 0
DWIDTH 6 0
BBX 5 6 0 0
BITMAP
20
20
70
70
F8
F8
ENDCHAR
STARTCHAR U+25B3
ENCODING 9651
SWIDTH 600 0
DWIDTH 6 0
BBX 5 6 0 0
BITMAP
20
20
50
50
88
F8
ENDCHAR
STARTCHAR U+25B6
ENCODING 9654
SWIDTH 700 0
DWIDTH 7 0
BBX 6 5 0 1
BITMAP
C0
F0
FC
F0
C0
ENDCHAR
STARTCHAR U+25B7
ENCODING 9655
SWIDTH 700 0
DWIDTH 7 0
BBX 6 5 0 1
BITMAP
C0
B0
8C
B0
C0
ENDCHAR
STARTCHAR U+25BC
ENCODING 9660
SWIDTH 600 0
DWIDTH 6 0
BBX 5 6 0 0
BITMAP
F8
F8
70
70
20
20
ENDCHAR
STARTCHAR U+25BD
ENCODING 9661
SWIDTH 600 0
DWIDTH 6 0
BBX 5 6 0 0
BITMAP
F8
88
50
50
20
20
ENDCHAR
STARTCHAR U+25C0
ENCODING 9664
SWIDTH 700 0
DWIDTH 7 0
BBX 6 5 0 1
BITMAP
0C
3C
FC
3C
0C
ENDCHAR
STARTCHAR U+25C1
ENCODING 9665
SWIDTH 700 0
DWIDTH 7 0
BBX 6 5 0 1
BITMAP
0C
34
C4
34
0C
ENDCHAR
STARTCHAR U+25C6
ENCODING 9670
SWIDTH 600 0
DWIDTH 6 0
BBX 5 5 0 1
BITMAP
20
70
F8
70
20
ENDCHAR
STARTCHAR U+25C7
ENCODING 9671
SWIDTH 600 0
DWIDTH 6 0
BBX 5 5 0 1
BITMAP
20
50
88
50
20
ENDCHAR
STARTCHAR U+25C8
ENCODING 9672
SWIDTH 600 0
DWIDTH 6 0
BBX 5 5 0 1
BITMAP
20
50
A8
50
20
ENDCHAR
STARTCHAR U+25C9
ENCODING 9673
SWIDTH 700 0
DWIDTH 7 0
BBX 6 6 0 0
BITMAP
78
CC
B4
B4
CC
78
ENDCHAR
STARTCHAR U+25CB
ENCODING 9675
SWIDTH 700 0
DWIDTH 7 0
BBX 6 6 0 0
BITMAP
78
CC
84
84
CC
78
ENDCHAR
STARTCHAR U+25CD
ENCODING 9677
SWIDTH 700 0
DWIDTH 7 0
BBX 6 6 0 0
BITMAP
78
EC
AC
AC
EC
78
ENDCHAR
STARTCHAR U+25CE
ENCODING 9678
SWIDTH 700 0
DWIDTH 7 0
BBX 6 6 0 0
BITMAP
78
CC
B4
B4
CC
78
ENDCHAR
STARTCHAR U+25CF
ENCODING 9679
SWIDTH 700 0
DWIDTH 7 0
BBX 6 6 0 0
BITMAP
78
FC
FC
FC
FC
78
ENDCHAR
STARTCHAR U+25D0
ENCODING 9680
SWIDTH 700 0
DWIDTH 7 0
BBX 6 6 0 0
BITMAP
78
E4
E4
E4
E4
78
ENDCHAR
STARTCHAR U+25D1
ENCODING 9681
SWIDTH 700 0
DWIDTH 7 0
BBX 6 6 0 0
BITMAP
78
9C
9C
9C
9C
78
ENDCHAR
STARTCHAR U+25D2
ENCODING 9682
SWIDTH 700 0
DWIDTH 7 0
BBX 6 6 0 0
BITMAP
78
84
84
FC
FC
78
ENDCHAR
STARTCHAR U+25D3
ENCODING 9683
SWIDTH 700 0
DWIDTH 7 0
BBX 6 6 0 0
BITMAP
78
FC
FC
84
84
78
ENDCHAR
STARTCHAR U+25D4
ENCODING 9684
SWIDTH 700 0
DWIDTH 7 0
BBX 6 6 0 0
BITMAP
78
9C
9C
84
84
78
ENDCHAR
STARTCHAR U+25D5
ENCODING 9685
SWIDTH 700 0
DWIDTH 7 0
BBX 6 6 0 0
BITMAP
78
9C
9C
FC
FC
78
ENDCHAR
STARTCHAR U+25D6
ENCODING 9686
SWIDTH 700 0
DWIDTH 7 0
BBX 3 6 0 0
BITMAP
60
E0
E0
E0
E0
60
ENDCHAR
STARTCHAR U+25D7
ENCODING 9687
SWIDTH 700 0
DWIDTH 7 0
BBX 3 6 3 0
BITMAP
C0
E0
E0
E0
E0
C0
ENDCHAR
STARTCHAR U+25EF
ENCODING 9711
SWIDTH 800 0
DWIDTH 8 0
BBX 7 7 0 0
BITMAP
38
44
82
82
82
44
38
ENDCHAR
STARTCHAR U+25FE
ENCODING 9726
SWIDTH 0 0
DWIDTH 0 0
BBX 0 0 0 0
BITMAP
ENDCHAR
STARTCHAR U+25FF
ENCODING 9727
SWIDTH 0 0
DWIDTH 0 0
BBX 0 0 0 0
BITMAP
ENDCHAR
STARTCHAR U+2640
ENCODING 9792
SWIDTH 500 0
DWIDTH 5 0
BBX 4 7 0 0
BITMAP
60
90
90
60
20
70
20
ENDCHAR
STARTCHAR U+2641
ENCODING 9793
SWIDTH 500 0
DWIDTH 5 0
BBX 4 7 0 0
BITMAP
20
70
20
60
90
90
60
ENDCHAR
STARTCHAR U+2642
ENCODING 9794
SWIDTH 500 0
DWIDTH 5 0
BBX 5 7 0 0
BITMAP
38
18
28
60
90
90
60
ENDCHAR
STARTCHAR U+2660
ENCODING 9824
SWIDTH 600 0
DWIDTH 6 0
BBX 5 6 0 0
BITMAP
20
70
F8
F8
20
70
ENDCHAR
STARTCHAR U+2661
ENCODING 9825
SWIDTH 600 0
DWIDTH 6 0
BBX 5 6 0 0
BITMAP
50
A8
88
88
50
20
ENDCHAR
STARTCHAR U+2662
ENCODING 9826
SWIDTH 600 0
DWIDTH 6 0
BBX 5 6 0 0
BITMAP
20
50
88
88
50
20
ENDCHAR
STARTCHAR U+2663
ENCODING 9827
SWIDTH 600 0
DWIDTH 6 0
BBX 5 6 0 0
BITMAP
70
70
F8
F8
20
70
ENDCHAR
STARTCHAR U+2664
ENCODING 9828
SWIDTH 600 0
DWIDTH 6 0
BBX 5 6 0 0
BITMAP
20
50
88
D8
20
70
ENDCHAR
STARTCHAR U+2665
ENCODING 9829
SWIDTH 600 0
DWIDTH 6 0
BBX 5 6 0 0
BITMAP
50
F8
F8
F8
70
20
ENDCHAR
STARTCHAR U+2666
ENCODING 9830
SWIDTH 600 0
DWIDTH 6 0
BBX 5 6 0 0
BITMAP
20
70
F8
F8
70
20
ENDCHAR
STARTCHAR U+2667
ENCODING 9831
SWIDTH 600 0
DWIDTH 6 0
BBX 5 6 0 0
BITMAP
70
50
88
D8
20
70
ENDCHAR
STARTCHAR U+2669
ENCODING 9833
SWIDTH 500 0
DWIDTH 5 0
BBX 3 6 0 0
BITMAP
20
20
20
60
E0
C0
ENDCHAR
STARTCHAR U+266A
ENCODING 9834
SWIDTH 500 0
DWIDTH 5 0
BBX 4 6 0 0
BITMAP
30
20
20
60
E0
C0
ENDCHAR
STARTCHAR U+266B
ENCODING 9835
SWIDTH 600 0
DWIDTH 6 0
BBX 5 6 0 0
BITMAP
78
48
48
C8
D8
98
ENDCHAR
STARTCHAR U+266C
ENCODING 9836
SWIDTH 600 0
DWIDTH 6 0
BBX 5 7 0 0
BITMAP
78
48
78
48
C8
D8
98
ENDCHAR
STARTCHAR U+266D
ENCODING 9837
SWIDTH 400 0
DWIDTH 4 0
BBX 3 6 0 0
BITMAP
80
80
80
E0
A0
C0
ENDCHAR
STARTCHAR U+266F
ENCODING 9839
SWIDTH 600 0
DWIDTH 6 0
BBX 5 7 0 0
BITMAP
10
58
70
D8
70
D0
40
ENDCHAR
ENDFONT
